<?xml version="1.0" encoding="UTF-8" standalone="no"?>
<!-- Created with Inkscape (http://www.inkscape.org/) -->

<svg
   xmlns:dc="http://purl.org/dc/elements/1.1/"
   xmlns:cc="http://creativecommons.org/ns#"
   xmlns:rdf="http://www.w3.org/1999/02/22-rdf-syntax-ns#"
   xmlns:svg="http://www.w3.org/2000/svg"
   xmlns="http://www.w3.org/2000/svg"
   xmlns:sodipodi="http://sodipodi.sourceforge.net/DTD/sodipodi-0.dtd"
   xmlns:inkscape="http://www.inkscape.org/namespaces/inkscape"
   viewBox="0 0 256 256"
   id="svg2992"
   version="1.1"
   inkscape:version="0.48.2 r9819">
  <title
     id="title3023">Check Lists</title>
  <defs
     id="defs2994" />
  <metadata
     id="metadata2997">
    <rdf:RDF>
      <cc:Work
         rdf:about="">
        <dc:format>image/svg+xml</dc:format>
        <dc:type
           rdf:resource="http://purl.org/dc/dcmitype/StillImage" />
        <dc:title>Check Lists</dc:title>
        <dc:date>07/02/2013</dc:date>
        <dc:creator>
          <cc:Agent>
            <dc:title>Adam Johnston</dc:title>
          </cc:Agent>
        </dc:creator>
      </cc:Work>
    </rdf:RDF>
  </metadata>
  <g
     inkscape:label="CheckLists"
     inkscape:groupmode="layer"
     id="layer1"
     transform="translate(0,-796.36218)">
    <path
       style="fill:#fff"
       d="m 198.37826,1052.3207 c -0.43755,-0.1361 -3.54381,-0.2423 -6.9028,-0.2359 -5.71509,0.011 -7.80287,-0.183 -9.4206,-0.8743 -0.30372,-0.1297 -1.2504,-0.4287 -2.10374,-0.6644 -0.85334,-0.2356 -1.71268,-0.6226 -1.90964,-0.8599 -0.19697,-0.2374 -1.0884,-0.9438 -1.98097,-1.5699 -0.89257,-0.6261 -2.07372,-1.7689 -2.62479,-2.5395 -0.55106,-0.7706 -1.27007,-1.7117 -1.5978,-2.0914 -0.32773,-0.3797 -1.00131,-1.7464 -1.49685,-3.0372 -0.49554,-1.2909 -1.0136,-2.465 -1.15125,-2.6093 -0.13765,-0.1443 -0.25028,-0.56 -0.25028,-0.9238 0,-0.7214 -0.76092,-2.1803 -1.23136,-2.3608 -0.1618,-0.062 -0.85175,-0.031 -1.53322,0.07 -0.68147,0.1006 -1.73604,0.084 -2.34349,-0.036 -0.60744,-0.1206 -2.24151,-0.3936 -3.63126,-0.6067 -1.38974,-0.213 -2.77939,-0.5225 -3.0881,-0.6877 -0.30872,-0.1653 -0.86997,-0.3005 -1.24723,-0.3005 -0.37727,0 -1.59337,-0.4348 -2.70246,-0.9663 -1.10908,-0.5316 -2.2267,-0.9664 -2.48359,-0.9664 -0.5284,0 -4.87737,-3.1332 -5.43413,-3.915 -0.19987,-0.2806 -0.88324,-0.7674 -1.51862,-1.0817 -1.06346,-0.5261 -2.68749,-1.9546 -5.96995,-5.2512 -0.6978,-0.7008 -1.88796,-1.591 -2.6448,-1.9783 -0.75683,-0.3872 -1.5295,-0.9585 -1.71704,-1.2694 -0.18754,-0.3109 -1.10325,-1.0606 -2.03493,-1.666 -0.93167,-0.6054 -1.86558,-1.3458 -2.07535,-1.6452 -0.20976,-0.2995 -0.75256,-0.6261 -1.20622,-0.7257 -0.45365,-0.1 -0.89571,-0.2959 -0.98234,-0.4361 -0.0866,-0.1401 -0.48209,-0.2548 -0.87879,-0.2548 -0.3967,0 -0.91743,-0.1749 -1.15718,-0.3886 -0.55787,-0.4972 -5.08564,-2.3492 -6.4363,-2.6326 -0.5667,-0.1189 -1.21199,-0.3669 -1.43396,-0.5511 -0.22198,-0.1843 -1.18719,-0.5327 -2.14492,-0.7743 -1.4133,-0.3566 -3.35374,-0.4369 -10.30079,-0.4257 -4.70771,0.01 -8.994351,0.1281 -9.525866,0.2681 -0.573338,0.1509 -2.03325,0.1578 -3.589456,0.017 -1.442685,-0.1307 -3.05794,-0.2282 -3.589456,-0.2168 -13.044403,0.2808 -19.662305,-0.1449 -21.321467,-1.3716 -0.444074,-0.3283 -1.994885,-1.0105 -3.446245,-1.516 -2.25411,-0.7851 -2.854659,-1.1322 -4.119136,-2.381 -0.814163,-0.804 -1.622944,-1.9021 -1.797293,-2.4402 -0.174348,-0.53811 -0.77741,-1.48266 -1.340134,-2.09902 -1.865523,-2.04331 -2.367561,-4.58661 -2.258687,-11.44244 0.07098,-4.46995 0.185525,-4.92421 2.262657,-8.97364 1.810555,-3.52974 2.579679,-4.66712 3.841952,-5.6815 0.609841,-0.49008 1.172424,-1.08962 1.250186,-1.3323 0.362322,-1.13073 5.054724,-2.82907 9.671168,-3.50027 5.958099,-0.8663 6.965118,-0.94823 12.010871,-0.97713 4.195458,-0.024 5.330058,0.0549 6.350576,0.44166 0.683377,0.25903 2.547133,0.59058 4.14168,0.73681 3.659494,0.33556 2.752828,0.32432 9.66392,0.11972 10.47845,-0.31021 12.92143,-1.31846 14.34581,-5.92075 0.33111,-1.06982 0.84202,-2.25026 1.13535,-2.62318 0.68195,-0.86693 0.67675,-1.46112 -0.016,-1.83189 -0.67433,-0.36088 -1.38341,-1.67716 -1.38341,-2.56806 0,-0.36367 -0.24834,-0.88596 -0.55188,-1.16064 -0.30353,-0.2747 -1.08009,-1.23847 -1.7257,-2.14171 -0.6456,-0.90325 -1.45496,-1.99113 -1.79857,-2.41753 -0.34362,-0.42637 -0.86659,-1.53226 -1.16217,-2.45748 -0.57903,-1.81254 -1.69646,-3.89591 -2.40499,-4.48395 -0.24166,-0.20054 -0.67861,-0.92553 -0.971,-1.61106 -0.29238,-0.68553 -0.89385,-1.62218 -1.33659,-2.08147 -0.44275,-0.45928 -1.58965,-2.40151 -2.54868,-4.3161 -0.95903,-1.91459 -2.11115,-3.91435 -2.56027,-4.44396 -1.94143,-2.2893 -4.087654,-5.48781 -5.900647,-8.79376 -0.299755,-0.54659 -0.986915,-1.57273 -1.527018,-2.28032 -0.540102,-0.70757 -0.982003,-1.35886 -0.982003,-1.4473 0,-0.0884 -0.43304,-0.6667 -0.962308,-1.28502 -0.529271,-0.61836 -1.041768,-1.54781 -1.13888,-2.06546 -0.09711,-0.51766 -0.454831,-1.27401 -0.794929,-1.68078 -0.340098,-0.40674 -1.19406,-1.84255 -1.897693,-3.19066 -0.703635,-1.34812 -1.690849,-3.0255 -2.193809,-3.72752 -0.50296,-0.70201 -1.101651,-1.64916 -1.330423,-2.10474 -0.748156,-1.4899 -1.197208,-2.19694 -1.89385,-2.9819 -0.377315,-0.42516 -0.998567,-1.62343 -1.38056,-2.66283 -0.469818,-1.27837 -1.118875,-2.35015 -2.006064,-3.31259 -0.721342,-0.78251 -1.311532,-1.58654 -1.311532,-1.78675 0,-0.20018 -0.245278,-0.67581 -0.545061,-1.05693 -0.711522,-0.90454 -2.654671,-1.40776 -5.157996,-1.33572 -1.08655,0.0312 -2.483848,-0.0801 -3.105106,-0.24731 -0.834247,-0.22465 -1.2836,-0.22175 -1.718747,0.011 -0.441964,0.23652 -0.992769,0.23591 -2.204338,-0.003 -0.995416,-0.19585 -1.802749,-0.22219 -2.104061,-0.0686 -0.290818,0.14821 -1.83136,0.1475 -3.80225,-0.003 -1.822339,-0.13798 -5.05285,-0.30025 -7.178912,-0.36055 -2.126062,-0.0603 -4.797446,-0.16727 -5.936408,-0.23768 -1.138962,-0.0704 -4.063612,-0.25087 -6.499223,-0.40108 -2.435609,-0.1502 -5.231243,-0.21755 -6.21252,-0.14965 -0.981274,0.0679 -5.575322,0.14896 -10.208995,0.18016 l -8.424856,0.0566 -3.504319,-1.73431 C 8.4177559,885.19223 7.7768227,884.63589 7.1658504,882.75118 6.9871921,882.20006 6.6015603,881.53245 6.3088926,881.2676 6.0162249,881.00273 5.5742829,880.08689 5.3267981,879.23238 5.0793134,878.3779 4.7504364,877.52504 4.59596,877.33717 4.4111251,877.11239 4.3812692,874.8938 4.5086396,870.84854 l 0.193549,-6.14705 c -0.5486704,-5.08375 0.950049,-8.80402 -0.3286671,-14.30107 0.00193,-0.57702 0.1910501,-1.41225 0.4205517,-1.85605 0.2297748,-0.44434 0.4292243,-1.58581 0.4438721,-2.54033 0.084935,-5.53551 -0.099928,-27.70285 -0.2700458,-32.38183 -0.2065291,-5.68037 -0.1341877,-6.40578 0.9216894,-9.24237 0.6551282,-1.76 2.7017255,-3.84482 4.8233561,-4.91344 0.985427,-0.49634 1.913655,-1.02441 2.062728,-1.17348 0.149073,-0.14907 0.674953,-0.27104 1.168622,-0.27104 0.493668,0 1.532576,-0.13618 2.308682,-0.30263 0.989011,-0.2121 1.890205,-0.21824 3.012782,-0.0205 1.047743,0.18456 1.972931,0.19004 2.675139,0.0159 0.590402,-0.14645 3.309967,-0.33263 6.043476,-0.41375 6.688203,-0.19847 16.187051,-0.63639 21.260623,-0.98017 2.082685,-0.14112 14.10504,-0.0448 16.152552,0.12946 0.9871,0.084 5.242817,0.28132 9.45715,0.4385 4.214333,0.15719 7.902615,0.41434 8.19618,0.57145 0.293565,0.15712 1.926986,0.28566 3.629821,0.28566 3.528587,0 5.977698,0.64927 7.123223,1.88839 0.361414,0.39094 1.406843,1.08893 2.323178,1.55108 2.389247,1.205 2.788511,1.86022 2.828773,4.64221 0.01809,1.24989 0.235364,3.51503 0.482835,5.03364 0.310673,1.90647 0.496504,5.36782 0.600371,11.18254 0.18475,10.3437 0.36342,15.02669 0.62152,16.2906 0.10854,0.53152 0.20977,2.39528 0.22497,4.14168 0.0152,1.74641 0.23292,4.60417 0.48381,6.35058 0.2509,1.74641 0.4604,3.946 0.46556,4.88801 0.0118,2.15953 0.32079,2.83032 1.65817,3.60001 1.71154,0.98503 5.25274,3.94282 5.89674,4.92526 0.32521,0.49611 0.93658,1.10599 1.35859,1.35526 0.42201,0.2493 0.94249,0.87257 1.15662,1.38506 0.21414,0.51252 0.8782,1.59358 1.4757,2.40237 0.5975,0.80882 1.18392,1.77929 1.30316,2.15663 0.31734,1.00422 2.57807,5.55974 3.00623,6.05779 0.20174,0.23466 0.69903,1.11002 1.10509,1.94526 0.40605,0.83524 0.97088,1.95349 1.25517,2.48501 0.28429,0.53151 0.71715,1.40127 0.96191,1.93278 1.00827,2.18954 3.67736,7.1949 4.08093,7.65297 0.23857,0.27078 0.75493,1.11359 1.14748,1.8729 0.39255,0.7593 1.34179,2.25031 2.10944,3.31334 0.76765,1.06303 1.7342,2.46587 2.1479,3.11741 1.28766,2.02796 5.30687,7.2824 7.14347,9.33886 0.96471,1.08018 1.75402,2.09003 1.75402,2.2441 0,0.50564 0.79051,0.94919 1.36612,0.76648 0.31036,-0.0985 1.17347,-0.69894 1.91803,-1.33433 2.65527,-2.26594 4.50143,-2.98292 9.27895,-3.60368 2.89866,-0.37664 8.78434,-0.0708 10.42881,0.54193 0.57256,0.21335 1.41562,0.38788 1.87347,0.38788 0.45786,0 1.14708,0.20614 1.53162,0.45809 0.45421,0.29763 1.32223,0.46691 2.47767,0.4832 1.66464,0.0235 1.8323,-0.0324 2.61847,-0.87226 0.46197,-0.49355 1.08833,-0.89737 1.3919,-0.89737 0.30356,0 0.89454,-0.17715 1.31329,-0.39371 1.38565,-0.71653 5.22549,-1.12791 9.56096,-1.02426 3.74016,0.0894 4.34482,0.17547 6.30038,0.89651 1.18975,0.43866 2.49638,0.79835 2.90364,0.79929 0.40726,0 1.11323,0.20208 1.56881,0.44699 0.45558,0.24491 1.44959,0.75685 2.2089,1.13764 0.7593,0.38079 1.76265,1.0527 2.22965,1.49316 l 0.84909,0.80083 3.82683,-0.4243 c 4.06756,-0.45097 5.86306,-0.35737 7.86642,0.41014 0.68337,0.26181 1.73372,0.56553 2.33411,0.67493 1.26732,0.23094 2.92909,1.02661 3.44676,1.65037 0.19787,0.2384 1.15395,0.67877 2.12463,0.97857 2.15319,0.66505 2.69144,0.93718 4.10537,2.07545 0.60745,0.48903 1.53688,1.11185 2.0654,1.38404 1.29657,0.66772 5.73642,4.76716 6.28072,5.79913 0.459,0.87025 1.31888,1.87554 3.40275,3.97819 2.47251,2.49481 6.3264,8.63013 6.33377,10.08328 0.001,0.2926 0.55334,1.34872 1.22636,2.34695 0.67301,0.99823 1.30904,2.18772 1.41341,2.6433 0.10435,0.45559 0.3682,1.11403 0.58633,1.46318 0.65698,1.05168 2.6165,6.95349 3.04368,9.16714 1.09569,5.67791 1.31197,12.86508 0.4862,16.15768 -0.33067,1.31852 -0.41077,2.34066 -0.27796,3.54669 0.25126,2.28165 0.21214,3.98107 -0.1597,6.94043 -0.31024,2.46894 -0.49615,3.08224 -1.78032,5.87351 -0.36836,0.80064 -0.66974,1.61915 -0.66974,1.81895 0,0.19979 0.65232,0.6847 1.44959,1.07755 2.39643,1.1809 3.32679,2.39792 4.37721,5.72587 1.1095,3.51516 1.2005,5.95524 0.40676,10.90642 -0.29212,1.8223 -0.51008,3.7115 -0.48432,4.1981 0.0654,1.2369 -0.65778,4.5069 -1.44365,6.5275 -0.36356,0.9346 -0.98578,2.6991 -1.38272,3.9209 -0.66206,2.0378 -1.29623,3.106 -3.65683,6.1595 -0.39374,0.5094 -1.34415,1.8761 -2.11202,3.0373 -0.76787,1.1611 -1.80303,2.5715 -2.30035,3.1342 -0.49732,0.5626 -1.14567,1.4945 -1.44079,2.0708 -0.29511,0.5763 -0.95281,1.3508 -1.46154,1.7209 -0.50874,0.3702 -1.0885,0.8999 -1.28836,1.1772 -0.19987,0.2773 -0.87413,0.7647 -1.49836,1.0831 -0.62423,0.3185 -1.76534,1.1732 -2.53579,1.8994 -0.77045,0.7261 -1.87787,1.5184 -2.46092,1.7604 -0.58306,0.2421 -1.43128,0.7525 -1.88494,1.1342 -0.45366,0.3818 -0.96245,0.6941 -1.13065,0.6941 -0.42097,0 -2.72853,1.1054 -3.26766,1.5653 -0.2423,0.2067 -1.68055,0.8591 -3.1961,1.4497 -1.51556,0.5907 -3.24135,1.3343 -3.8351,1.6525 -0.59375,0.3182 -1.34346,0.5786 -1.66602,0.5786 -0.32255,0 -1.27535,0.3676 -2.11732,0.8169 -1.50026,0.8006 -8.10024,3.1149 -10.28164,3.6052 -2.17554,0.4891 -2.49567,0.5156 -3.28056,0.2715 z m -3.20808,-4.9523 c 0.53152,-0.1405 2.14677,-0.3237 3.58946,-0.4069 2.60305,-0.1503 4.59782,-0.6464 7.91629,-1.9688 0.93706,-0.3734 2.02316,-0.679 2.41353,-0.679 0.94374,0 4.8041,-1.3306 5.7273,-1.9741 0.40309,-0.281 0.91265,-0.5109 1.13235,-0.5109 0.64181,0 3.00388,-1.3522 4.20571,-2.4077 0.60937,-0.5351 1.9777,-1.8012 3.04073,-2.8135 2.26197,-2.1541 4.39686,-3.8905 4.78328,-3.8905 0.1499,0 0.79306,-0.4348 1.42924,-0.9664 0.63618,-0.5315 1.2832,-0.9664 1.43782,-0.9664 0.68013,0 5.68801,-4.7089 6.93969,-6.5254 0.32787,-0.4758 1.3819,-1.9501 2.34229,-3.2762 1.8854,-2.6034 1.96738,-2.7634 2.68859,-5.2465 0.26464,-0.9111 0.76164,-1.9945 1.10443,-2.4073 1.98805,-2.3947 3.02756,-11.3593 1.77903,-15.34201 -0.29914,-0.95418 -0.68054,-1.99024 -0.84757,-2.30233 -0.51254,-0.95769 -2.23229,-2.72751 -2.65035,-2.72751 -0.21735,0 -1.01644,0.62125 -1.77575,1.38056 -0.7593,0.7593 -1.50925,1.38056 -1.66655,1.38056 -0.1573,0 -1.23397,0.37959 -2.3926,0.84352 -1.77028,0.70886 -2.20445,0.79117 -2.71946,0.51555 -0.33707,-0.18041 -0.80762,-0.25327 -1.04565,-0.16191 -0.69342,0.26606 -1.21423,-0.0789 -1.4007,-0.92793 -0.23662,-1.0773 0.14992,-1.66951 1.60204,-2.4545 0.67826,-0.36664 1.43468,-1.00769 1.68093,-1.42457 0.24625,-0.41687 1.0686,-1.27776 1.82745,-1.91309 1.06263,-0.88969 1.37972,-1.33603 1.37972,-1.94215 0,-0.43871 0.21921,-0.94662 0.49535,-1.14777 0.93753,-0.68285 2.21342,-2.84867 2.57111,-4.36442 0.19711,-0.83524 0.58744,-1.82212 0.86741,-2.19305 0.37183,-0.49266 0.49561,-1.08804 0.45923,-2.20889 -0.0274,-0.84397 0.13792,-2.1574 0.36735,-2.91881 0.24682,-0.81906 0.36351,-1.94651 0.28577,-2.76112 -0.0754,-0.79015 0.0497,-2.06868 0.29362,-3.00065 0.75433,-2.88214 -0.008,-11.87425 -1.49156,-17.59794 -0.14235,-0.54913 -0.25882,-1.43319 -0.25882,-1.96456 0,-0.54019 -0.23766,-1.2683 -0.53903,-1.65143 -0.72845,-0.92608 -1.86973,-4.06243 -2.49051,-6.84424 -0.30686,-1.37506 -1.78182,-4.84065 -2.56694,-6.03133 -0.36611,-0.55523 -0.89421,-1.38227 -1.17355,-1.83786 -0.27933,-0.45558 -1.34616,-1.69809 -2.37071,-2.76112 -1.02456,-1.06303 -2.41857,-2.67828 -3.09781,-3.58945 -1.68739,-2.26354 -3.35456,-4.00363 -3.8359,-4.00363 -0.21992,0 -0.79925,-0.497 -1.28741,-1.10444 -0.48816,-0.60745 -1.02572,-1.10445 -1.19459,-1.10445 -0.16888,0 -0.99059,-0.51608 -1.82604,-1.14686 -1.58999,-1.20045 -6.91711,-3.73207 -8.42335,-4.00307 -0.48191,-0.0867 -1.49932,-0.33051 -2.2609,-0.54182 -0.76158,-0.21128 -2.47902,-0.43269 -3.81652,-0.49203 -2.95293,-0.13096 -3.36562,0.24781 -1.74887,1.60518 0.55754,0.46809 1.0137,1.059 1.01369,1.3131 0,0.25411 0.31213,0.83298 0.69364,1.28635 0.7197,0.85534 1.51525,2.77747 1.51525,3.66103 0,0.2794 0.38802,0.90493 0.86227,1.39006 0.84762,0.86713 0.85917,0.91534 0.67952,2.83967 -0.10051,1.07667 -0.17608,2.29745 -0.16792,2.71283 0.0211,1.07264 -0.94365,1.96431 -1.881,1.73857 -1.09475,-0.26364 -1.42566,-0.89933 -1.42566,-2.73884 0,-1.49683 -0.18116,-2.01833 -1.86268,-5.36204 -1.45486,-2.89297 -2.10473,-3.89048 -2.9682,-4.55591 -0.60804,-0.46861 -2.31516,-2.03781 -3.79359,-3.48715 -2.54033,-2.49034 -2.83625,-2.69259 -5.38419,-3.67975 -1.48286,-0.5745 -3.00674,-1.21116 -3.38639,-1.41482 -0.92966,-0.49863 -3.25712,-0.83044 -5.93641,-0.84623 -2.27692,-0.0135 -3.60372,0.19019 -5.53147,0.84893 -0.61253,0.2093 -1.39526,0.38054 -1.73941,0.38054 -0.75576,0 -2.25499,0.73761 -2.25499,1.10942 0,0.28738 0.6566,0.89419 3.03724,2.80698 0.83524,0.67106 2.47655,2.39411 3.64736,3.82898 1.17081,1.43485 2.5065,3.03072 2.96821,3.54636 0.4617,0.51567 0.83945,1.0891 0.83945,1.27431 0,0.18522 0.25737,0.66394 0.57194,1.06386 0.54951,0.69859 0.55503,0.78524 0.14084,2.21 -0.2371,0.81561 -0.60361,1.62608 -0.81446,1.80108 -0.791,0.65646 -3.21166,-0.87748 -3.21166,-2.03519 0,-0.89676 -2.49022,-4.53371 -4.46335,-6.51865 -2.25349,-2.26699 -4.7937,-4.45686 -5.56463,-4.79717 -0.33128,-0.14626 -1.14827,-0.67432 -1.81552,-1.17347 -0.90393,-0.67626 -1.49765,-0.90761 -2.32915,-0.90761 -0.70143,0 -1.32772,-0.19135 -1.686,-0.51512 -0.31351,-0.28332 -1.53643,-0.73757 -2.71759,-1.00946 -1.80712,-0.41594 -2.86152,-0.46616 -6.65108,-0.3167 -5.01364,0.19772 -5.68197,0.36308 -8.73446,2.16113 -2.44977,1.44301 -2.80715,2.25379 -1.42672,3.23675 0.4472,0.31844 0.88677,0.87248 0.97681,1.23126 0.09,0.35875 0.66353,0.99867 1.27441,1.42201 0.61088,0.42333 1.36058,1.17403 1.666,1.66821 0.30542,0.49419 0.98548,1.2266 1.51126,1.62765 0.52577,0.40103 1.26926,1.26377 1.65221,1.91721 0.38294,0.65345 1.6462,2.04704 2.80724,3.0969 1.16104,1.04986 2.59261,2.53007 3.18125,3.28938 0.58865,0.75931 1.50254,1.91829 2.03087,2.57552 1.15278,1.43399 1.22996,2.34333 0.25321,2.98333 -0.64335,0.42154 -0.78711,0.42522 -1.58765,0.0407 -0.82661,-0.39707 -5.10074,-4.24756 -7.44157,-6.70397 -4.30466,-4.51722 -6.80308,-7.39996 -7.84814,-9.05545 -0.3991,-0.63221 -1.54475,-1.98596 -2.54589,-3.00829 -1.00114,-1.02236 -2.00663,-2.08341 -2.23442,-2.35786 -0.2278,-0.27449 -1.04362,-1.24217 -1.81296,-2.15042 -0.76933,-0.90824 -1.6215,-2.00926 -1.89373,-2.44671 -0.52637,-0.84584 -1.19403,-1.65526 -3.20743,-3.88843 -0.68959,-0.76488 -1.57459,-1.88769 -1.96666,-2.49514 -0.39206,-0.60745 -1.06702,-1.4772 -1.4999,-1.93278 -0.43289,-0.45559 -0.97677,-1.17097 -1.20863,-1.58977 -0.23186,-0.41878 -1.19813,-2.04878 -2.14727,-3.62223 -0.94913,-1.57346 -1.7257,-2.95752 -1.7257,-3.0757 0,-0.1182 -0.41633,-0.72468 -0.92518,-1.34778 -0.50885,-0.62308 -1.19697,-1.74959 -1.52916,-2.50335 -0.33219,-0.75378 -0.77035,-1.56141 -0.97369,-1.79472 -0.20334,-0.23335 -1.05796,-1.72891 -1.89915,-3.32345 -2.56226,-4.85701 -3.30166,-6.19466 -3.66292,-6.62669 -0.19048,-0.22779 -0.48552,-0.93699 -0.65563,-1.57599 -0.17012,-0.63898 -0.43156,-1.23737 -0.58099,-1.32973 -0.28074,-0.17351 -2.15786,-3.28598 -3.86245,-6.40436 -0.53562,-0.97987 -1.219,-1.91161 -1.51862,-2.07054 -1.26729,-0.67219 -3.34597,-2.13371 -3.8581,-2.71263 -0.9317,-1.05321 -2.95453,-2.19736 -3.88491,-2.19736 -0.482693,0 -1.375198,-0.17555 -1.983346,-0.39012 -2.000274,-0.70574 -4.029945,-0.81845 -5.563819,-0.30899 -0.767854,0.25504 -1.617624,0.3934 -1.888377,0.30747 -0.270753,-0.0859 -1.236175,0.19488 -2.145385,0.62402 -0.909209,0.42913 -2.025858,0.8719 -2.481443,0.98389 -1.060759,0.26082 -2.279854,1.41524 -2.79773,2.6493 -0.223048,0.53151 -0.764203,1.33914 -1.202564,1.79473 -1.145484,1.19051 -2.031052,4.61292 -1.857582,7.17891 0.130863,1.93574 1.068807,5.21288 2.06524,7.21585 0.292077,0.58713 0.937047,2.29632 1.433265,3.79817 0.49622,1.50189 1.259421,3.30352 1.696009,4.00363 0.436586,0.70013 1.358405,2.3856 2.048486,3.74548 0.690081,1.35988 1.415162,2.66451 1.611293,2.89918 0.196131,0.23467 0.705058,1.23428 1.130947,2.22138 0.425889,0.9871 1.001082,2.04477 1.278208,2.3504 0.277125,0.3056 0.768764,1.17535 1.092536,1.93278 1.226854,2.87005 2.497952,5.21316 3.279134,6.0447 0.312556,0.33269 1.935898,3.32613 3.607428,6.65206 1.87858,3.73793 3.40911,6.42604 4.00796,7.03931 0.53285,0.54571 0.96882,1.0888 0.96882,1.20689 0,0.11809 0.34511,0.7341 0.76692,1.36891 0.42181,0.63481 0.98192,1.58908 1.24468,2.12059 0.73707,1.49093 3.50994,5.82414 4.87782,7.62268 0.67602,0.88886 1.52513,2.1777 1.8869,2.86411 0.36177,0.68639 0.93534,1.5586 1.27461,1.93825 0.33927,0.37966 0.82252,1.00091 1.0739,1.38056 0.25137,0.37966 1.08059,1.56004 1.84269,2.62307 0.76211,1.06303 1.3867,2.02738 1.38798,2.14298 10e-4,0.11561 0.488,0.92324 1.0816,1.79473 1.08285,1.58977 2.51018,4.53014 2.51018,5.17111 0,0.18842 0.24959,0.65988 0.55464,1.04768 0.30506,0.38783 0.63319,1.11903 0.72917,1.62489 0.096,0.50587 0.29007,1.14545 0.43129,1.42132 0.50271,0.98199 0.72444,3.34404 0.43242,4.60651 -0.49496,2.13981 -1.52195,3.76493 -4.15497,6.57483 -0.67319,0.71842 -2.59533,1.81936 -5.03341,2.88297 l -2.48501,1.0841 -5.79835,0.29144 c -4.1906,0.21062 -6.21943,0.20692 -7.316966,-0.0133 -0.835239,-0.16762 -2.885371,-0.37258 -4.555848,-0.45544 -4.077131,-0.20223 -18.877222,-0.51785 -21.122568,-0.45045 -1.983119,0.0595 -7.208538,1.44161 -8.249848,2.18203 -0.361223,0.25684 -1.003338,0.65336 -1.426924,0.88115 -0.887976,0.47754 -1.75483,1.51036 -2.045217,2.4368 -0.110688,0.35312 -0.817871,1.64676 -1.571519,2.87472 -2.012895,3.27974 -2.188502,3.83461 -2.325459,7.34783 -0.120377,3.0879 -0.107502,3.17029 0.88448,5.6603 0.553649,1.38975 1.401854,2.96169 1.884895,3.4932 0.483042,0.53152 1.085413,1.30159 1.338605,1.71129 0.253189,0.40969 0.911018,0.95874 1.461839,1.22011 0.550819,0.2614 1.390895,0.8723 1.866835,1.3577 0.914273,0.9324 1.471238,1.0997 4.891489,1.4691 1.151349,0.1244 2.22181,0.3056 2.378804,0.4026 0.546291,0.3376 19.31914,0.4708 20.856691,0.1479 2.729757,-0.5731 13.477421,-0.7321 16.640171,-0.2461 1.06303,0.1634 3.54804,0.4143 5.52224,0.5577 2.36713,0.1718 4.51173,0.5169 6.29781,1.0135 2.70911,0.7533 2.79837,0.8062 5.43695,3.222 0.37965,0.3477 1.43578,1.141 2.34695,1.763 0.91117,0.6221 2.40217,1.8957 3.31334,2.8303 0.91117,0.9347 2.02942,1.898 2.48501,2.1408 0.45558,0.2428 1.36121,0.9488 2.0125,1.5689 0.65129,0.6201 1.42161,1.2545 1.71182,1.4098 0.29021,0.1553 1.63953,1.2511 2.99847,2.435 2.50105,2.1789 3.21957,2.6406 6.94475,4.4627 4.71569,2.3066 5.43359,2.6161 6.48864,2.7971 0.60744,0.1042 1.60144,0.3707 2.20889,0.5923 1.30193,0.4748 2.30794,0.7389 5.10807,1.3407 3.59152,0.7719 6.48048,0.234 11.99138,-2.2326 0.90045,-0.4031 2.08083,-0.8976 2.62307,-1.0989 3.08981,-1.1476 5.40726,-2.1534 5.9563,-2.5853 0.34352,-0.2702 1.16734,-0.6532 1.83071,-0.851 0.66336,-0.1979 1.71673,-0.5954 2.34081,-0.8833 1.77876,-0.8208 3.69727,-0.5641 3.69727,0.4945 0,0.8199 -1.77859,2.7868 -3.17529,3.5114 -0.75931,0.394 -1.93969,1.0251 -2.62306,1.4026 -1.91287,1.0564 -5.70956,2.6477 -6.70223,2.8089 -1.51818,0.2467 -3.33246,1.2845 -3.86366,2.2101 -0.27554,0.4802 -0.52087,1.4121 -0.54518,2.0709 -0.053,1.4366 1.30718,5.245 2.37175,6.6407 0.40012,0.5246 0.8065,1.3488 0.90306,1.8317 0.12952,0.6476 0.36552,0.9246 0.89966,1.056 0.39824,0.098 1.71808,0.6377 2.93297,1.1993 2.69269,1.2447 4.41372,1.7515 7.99306,2.3534 1.5108,0.2541 3.00181,0.5653 3.31334,0.6915 0.75331,0.3051 0.95103,0.3056 2.08503,0.01 z m 2.33278,-53.73537 c -0.46338,-0.2287 -1.07795,-0.81607 -1.3657,-1.30526 -0.28776,-0.48919 -0.93253,-1.32432 -1.43282,-1.85583 -0.5003,-0.53152 -1.53729,-1.90915 -2.30442,-3.06142 -1.2431,-1.86718 -1.40102,-2.27254 -1.45218,-3.72751 -0.0527,-1.49863 -0.007,-1.63967 0.55798,-1.71993 0.60879,-0.0865 0.72704,0.0141 2.85992,2.43439 1.15606,1.31184 2.55811,3.26533 3.10586,4.3274 0.24848,0.48181 0.95057,1.45229 1.56019,2.15665 1.28507,1.48479 1.3361,1.76527 0.46936,2.57952 -0.75253,0.70696 -0.89018,0.71881 -1.99819,0.17199 z m 8.43279,-2.78644 c -0.22934,-0.0624 -0.67849,-0.6382 -0.99811,-1.2795 -0.86377,-1.73307 -2.93666,-5.64964 -3.90518,-7.37851 -2.38246,-4.25287 -2.66882,-5.26916 -1.66245,-5.89994 0.38873,-0.24364 0.68961,-0.0692 1.70018,0.98545 0.67532,0.7048 1.31801,1.56547 1.42818,1.9126 0.11017,0.34713 0.74291,1.50304 1.40608,2.5687 0.66317,1.06562 1.20577,2.0366 1.20577,2.15767 0,0.2797 1.29687,2.30333 2.15979,3.37012 0.53213,0.65783 0.6305,1.02837 0.51049,1.92309 -0.12868,0.9594 -0.78962,1.88628 -1.27347,1.78586 -0.0849,-0.0177 -0.34195,-0.0831 -0.57128,-0.14554 z m 7.04366,-2.8783 c -0.45559,-0.29177 -0.92354,-0.56294 -1.0399,-0.60256 -0.11635,-0.0396 -0.56889,-1.0654 -1.00563,-2.27947 -0.43674,-1.21406 -1.24236,-3.29233 -1.79025,-4.61836 -1.47034,-3.5585 -1.28953,-4.54861 0.74679,-4.08935 1.29745,0.29262 1.84648,0.74028 1.84648,1.5055 0,0.32882 0.44952,1.6493 0.99893,2.93438 0.54941,1.28511 1.37501,3.21944 1.83466,4.29851 1.29575,3.04192 0.61405,4.26361 -1.59108,2.85135 z M 71.88618,884.70992 c 4.626127,0.23928 4.961796,0.20714 5.059871,-0.48447 0.05049,-0.35602 -0.268364,-1.20285 -0.727731,-1.93278 -0.95466,-1.51693 -1.493026,-3.06451 -1.604573,-4.61248 -0.04377,-0.60745 -0.178951,-1.78783 -0.300396,-2.62307 -0.232243,-1.59725 -0.09686,-2.5709 0.770596,-5.54181 0.291361,-0.9979 0.529745,-2.07261 0.529745,-2.38826 0,-0.31568 0.497002,-1.23538 1.104448,-2.04384 0.607447,-0.80842 1.104448,-1.63469 1.104448,-1.83614 0,-1.1803 2.689317,-4.4385 4.279736,-5.18505 0.455585,-0.21388 1.014712,-0.5057 1.242504,-0.64853 2.531547,-1.58734 5.72555,-2.34687 8.204088,-1.95093 0.99339,0.15871 1.830043,0.25256 1.859225,0.2086 1.126012,-1.69635 1.318802,-2.40982 1.474615,-5.45716 0.188816,-3.69282 0.200341,-5.70951 0.05447,-9.53282 -0.127997,-3.35487 -0.027,-6.11885 0.297641,-8.1453 0.163591,-1.02116 0.123756,-2.42309 -0.121606,-4.27974 -0.200686,-1.51861 -0.276912,-3.00962 -0.169392,-3.31334 0.307498,-0.86861 0.279661,-12.25558 -0.03409,-13.94366 -0.669497,-3.60213 -0.862516,-3.88238 -4.611717,-6.69571 -1.145478,-0.85955 -1.606969,-1.03657 -2.716958,-1.04217 -0.735405,-0.004 -1.839947,-0.12293 -2.454536,-0.26491 -0.61459,-0.14199 -3.888279,-0.31826 -7.274867,-0.3917 -3.386588,-0.0734 -7.046132,-0.27295 -8.132318,-0.44335 -1.356,-0.21272 -3.013216,-0.2312 -5.288229,-0.0589 -2.42206,0.18339 -3.536167,0.16312 -4.14168,-0.0754 -0.610191,-0.24032 -4.391368,-0.29934 -14.357824,-0.22408 -21.592488,0.16305 -21.172596,0.14899 -22.072773,0.73881 -0.64079,0.41986 -0.967375,0.46506 -1.780992,0.24648 -1.600701,-0.43004 -5.408636,0.0455 -7.388619,0.92267 -0.478534,0.212 -0.999685,0.38546 -1.15811,0.38546 -0.582317,0 -2.245806,1.8305 -2.760134,3.03723 -0.388937,0.91254 -0.536121,1.9391 -0.554237,3.86557 -0.01356,1.44269 -0.159733,4.54895 -0.3248149,6.9028 -0.3505131,4.99784 -0.4616427,15.47771 -0.3337808,31.47677 0.00911,1.13896 0.037631,4.74222 0.063395,8.00725 0.025761,3.26502 -0.040221,7.28853 -0.1466321,8.94111 -0.1526678,2.37095 -0.1005075,3.33187 0.2472942,4.55585 0.2424236,0.85313 0.5583286,2.73152 0.7020116,4.1742 0.143683,1.44269 0.491927,3.13479 0.773876,3.76018 0.869667,1.92911 2.890782,3.89785 4.499253,4.3827 0.379654,0.11445 0.865653,0.34818 1.079998,0.51942 0.458827,0.36657 1.429211,0.38948 24.322305,0.57481 9.49135,0.0768 18.872255,0.25551 20.846456,0.3971 1.974201,0.14157 4.583459,0.18116 5.798352,0.088 1.214892,-0.0932 3.078648,-0.12441 4.141679,-0.0694 z M 42.694315,865.72178 c -0.413785,-0.27286 -1.544347,-1.29712 -2.512365,-2.2761 -2.573991,-2.60316 -8.394388,-8.06626 -8.888311,-8.34267 -0.233919,-0.13091 -1.145522,-0.94436 -2.025778,-1.80768 -0.880259,-0.86332 -1.80871,-1.72988 -2.06323,-1.9257 -0.722516,-0.55586 -0.592658,-1.62234 0.222455,-1.82692 0.994558,-0.24962 2.457493,-1.62912 4.31409,-4.06804 1.601927,-2.10439 2.547218,-2.99876 3.169467,-2.99876 0.399443,0 2.416024,1.58786 2.599594,2.04692 0.07593,0.18989 1.048028,1.12534 2.160215,2.07878 1.112185,0.95344 2.084403,1.89573 2.16048,2.09399 0.07608,0.19825 0.645362,0.71184 1.265076,1.14131 l 1.126755,0.78084 1.682781,-1.89737 c 1.37776,-1.55344 7.394989,-7.6517 9.158378,-9.2817 0.246433,-0.22779 2.951877,-2.9631 6.012096,-6.07847 3.060218,-3.11536 6.371662,-6.42985 7.358763,-7.36553 0.9871,-0.93567 3.212336,-3.13932 4.944969,-4.89698 1.783275,-1.80904 3.373746,-3.19576 3.665318,-3.19576 0.298306,0 0.62795,0.29689 0.783286,0.70544 0.651174,1.71272 4.348866,5.09291 5.571288,5.09291 0.485499,0 1.325746,0.86008 1.325746,1.35703 0,0.40463 -0.110196,0.52162 -6.70864,7.12187 -2.764367,2.76512 -5.110085,5.12588 -5.212711,5.24613 -0.102625,0.12025 -1.034503,1.06822 -2.070839,2.10662 -1.036337,1.03839 -2.13275,2.15216 -2.436473,2.47504 -0.303724,0.32288 -1.094591,1.08854 -1.757484,1.70147 -1.808039,1.67175 -4.102557,3.95614 -6.12727,6.10021 -0.99566,1.05435 -2.238164,2.29828 -2.76112,2.76431 -0.522956,0.46599 -2.62821,2.6335 -4.678342,4.81663 -5.823956,6.20184 -8.517417,8.83211 -9.042303,8.83012 -0.26596,0 -0.82211,-0.22506 -1.235891,-0.49794 z"
       id="path2996"
       inkscape:connector-curvature="0"
       sodipodi:nodetypes="ssssssssssssssssssssssssssssssssssssssssssssssssssssssssssssssssssssssssssssssssccscssssscssssssccssssssssssssssssssssssssssssssssssssssssssssssssssssscssscssssssssscssssssscssssccssssssssssssssssssscsssssssssssssscssssssssssssssssssssssssssssssssssscssssssssssssssssssssssssssssssssssssssssssssssssssssssssssssssssssssssssssssssssssssssssssssscsssssssscssssssssssssssssssssssssssssssssssssssssssssssssccssssssssssscsssssssssscssssssssssssssssssssscssssssssssssssssssssssssssssssssssssssssssssscssssssssssssssssscs" />
  </g>
</svg>
