<?xml version="1.0" encoding="UTF-8" standalone="no"?>
<!-- Created with Inkscape (http://www.inkscape.org/) -->

<svg
   xmlns:dc="http://purl.org/dc/elements/1.1/"
   xmlns:cc="http://creativecommons.org/ns#"
   xmlns:rdf="http://www.w3.org/1999/02/22-rdf-syntax-ns#"
   xmlns:svg="http://www.w3.org/2000/svg"
   xmlns="http://www.w3.org/2000/svg"
   xmlns:sodipodi="http://sodipodi.sourceforge.net/DTD/sodipodi-0.dtd"
   xmlns:inkscape="http://www.inkscape.org/namespaces/inkscape"
   viewBox="0 0 256 256"
   id="svg2992"
   version="1.1">
  <title
     id="title3023">Create Lists</title>
  <defs
     id="defs2994" />
  <metadata
     id="metadata2997">
    <rdf:RDF>
      <cc:Work
         rdf:about="">
        <dc:format>image/svg+xml</dc:format>
        <dc:type
           rdf:resource="http://purl.org/dc/dcmitype/StillImage" />
        <dc:title>Create Lists</dc:title>
        <dc:date>07/02/2013</dc:date>
        <dc:creator>
          <cc:Agent>
            <dc:title>Adam Johnston</dc:title>
          </cc:Agent>
        </dc:creator>
      </cc:Work>
    </rdf:RDF>
  </metadata>
  <g
     inkscape:label="CreateLists"
     inkscape:groupmode="layer"
     id="layer1"
     transform="translate(0,-796.36218)">
    <path
       inkscape:connector-curvature="0"
       id="path3049-7-4-0-9-4-8-8"
       style="fill:#fff"
       d="m 207.94061,1009.9451 c 0.89641,0.2731 2.80935,1.4216 4.33957,2.6054 0.76877,0.5947 1.97482,1.341 2.68012,1.6583 0.70529,0.3174 1.98912,1.1226 2.85295,1.7895 1.5077,1.164 4.22948,2.8304 6.89342,4.2206 0.69201,0.3611 1.47085,0.8692 1.73075,1.1291 0.58791,0.5879 3.5143,1.9065 6.47881,2.9193 l 2.24861,0.7682 0.25175,1.2764 c 0.51395,2.6058 0.40237,4.5494 -0.31924,5.561 -0.37718,0.5287 -0.94547,1.5828 -1.26285,2.3424 -0.99386,2.3787 -2.92083,4.6153 -5.03217,5.8408 -3.42651,1.9888 -7.14852,3.5599 -7.64582,3.2274 -0.25385,-0.1697 -0.7732,-0.3636 -1.15411,-0.431 -1.36018,-0.2405 -2.37703,-1.685 -3.55645,-5.0523 -0.61254,-1.7488 -1.17942,-3.2453 -1.25974,-3.3256 -0.0803,-0.08 -0.42925,-0.9871 -0.77542,-2.015 -0.34616,-1.0279 -0.75848,-1.998 -0.91625,-2.1558 -0.15778,-0.1578 -0.64327,-1.1871 -1.07888,-2.2875 -1.20261,-3.0378 -2.45066,-5.787 -2.77377,-6.1102 -0.15922,-0.1592 -0.37837,-0.9309 -0.48699,-1.715 -0.10862,-0.784 -0.34893,-1.5821 -0.53402,-1.7736 -0.4166,-0.4308 -1.59542,-3.694 -2.06618,-5.7195 -0.27738,-1.1934 -0.22906,-1.6569 0.23127,-2.218 0.4114,-0.5015 0.74973,-0.6582 1.15464,-0.5349 z m -148.469159,5.9141 c -0.273075,0.8964 -1.421565,2.8094 -2.605384,4.3396 -0.594734,0.7688 -1.340972,1.9748 -1.658307,2.6801 -0.317331,0.7053 -1.122604,1.9891 -1.789494,2.853 -1.163966,1.5077 -2.830391,4.2294 -4.220549,6.8934 -0.361118,0.692 -0.869225,1.4708 -1.129123,1.7307 -0.587914,0.5879 -1.906526,3.5143 -2.919312,6.4788 l -0.768212,2.2486 -1.276441,0.2518 c -2.605787,0.5139 -4.54941,0.4024 -5.560922,-0.3193 -0.528722,-0.3771 -1.58282,-0.9454 -2.342442,-1.2628 -2.378667,-0.9939 -4.61527,-2.9208 -5.84074,-5.0322 -1.988832,-3.4265 -3.559985,-7.1485 -3.227496,-7.6458 0.169722,-0.2538 0.363687,-0.7732 0.431037,-1.1541 0.240492,-1.3602 1.685021,-2.377 5.052266,-3.5564 1.748795,-0.6126 3.245336,-1.1795 3.325652,-1.2598 0.08032,-0.08 0.987052,-0.4292 2.014969,-0.7754 1.027914,-0.3462 1.998026,-0.7585 2.155804,-0.9163 0.15778,-0.1577 1.187147,-0.6432 2.287488,-1.0788 3.037803,-1.2026 5.787067,-2.4507 6.110174,-2.7738 0.159224,-0.1592 0.930995,-0.3784 1.715045,-0.487 0.784053,-0.1086 1.582159,-0.3489 1.773571,-0.534 0.430808,-0.4166 3.693996,-1.5954 5.719524,-2.0662 1.19344,-0.2774 1.656897,-0.2291 2.218023,0.2313 0.501495,0.4114 0.658221,0.7497 0.534869,1.1546 z M 52.376825,838.46721 c -0.896405,-0.27308 -2.80935,-1.42157 -4.339571,-2.60539 -0.76877,-0.59473 -1.974817,-1.34097 -2.680114,-1.6583 -0.705295,-0.31734 -1.989128,-1.12261 -2.852956,-1.7895 -1.507701,-1.16396 -4.229478,-2.83039 -6.893421,-4.22055 -0.692009,-0.36112 -1.470844,-0.86922 -1.730742,-1.12912 -0.587915,-0.58791 -3.514303,-1.90653 -6.47881,-2.91931 l -2.24861,-0.76821 -0.251756,-1.27645 c -0.513944,-2.60578 -0.402366,-4.5494 0.31924,-5.56092 0.377187,-0.52872 0.945474,-1.58282 1.262855,-2.34244 0.993857,-2.37867 2.920832,-4.61527 5.032168,-5.84074 3.426505,-1.98883 7.148516,-3.55998 7.645821,-3.22749 0.253853,0.16972 0.773199,0.36368 1.154106,0.43103 1.360178,0.2405 2.377028,1.68502 3.556453,5.05227 0.612541,1.74879 1.179422,3.24533 1.259735,3.32565 0.08032,0.0803 0.429254,0.98705 0.77542,2.01497 0.346162,1.02791 0.75848,1.99803 0.916257,2.1558 0.157778,0.15778 0.643271,1.18715 1.078877,2.28749 1.202608,3.0378 2.450663,5.78707 2.77377,6.11018 0.159221,0.15922 0.378368,0.93099 0.486989,1.71504 0.108621,0.78405 0.34893,1.58216 0.534022,1.77357 0.416594,0.43081 1.595414,3.694 2.066179,5.71952 0.277382,1.19344 0.229057,1.6569 -0.231268,2.21803 -0.411403,0.50149 -0.749733,0.65822 -1.154644,0.53487 z m 149.515595,-3.93049 c 0.27308,-0.89641 1.42157,-2.80935 2.60539,-4.33957 0.59473,-0.76877 1.34097,-1.97482 1.6583,-2.68012 0.31733,-0.70529 1.12261,-1.98912 1.7895,-2.85295 1.16396,-1.5077 2.83039,-4.22948 4.22054,-6.89342 0.36112,-0.69201 0.86923,-1.47085 1.12913,-1.73075 0.58791,-0.58791 1.90652,-3.5143 2.91931,-6.47881 l 0.76821,-2.24861 1.27644,-0.25175 c 2.60579,-0.51395 4.54941,-0.40237 5.56092,0.31924 0.52873,0.37719 1.58282,0.94547 2.34245,1.26285 2.37866,0.99386 4.61527,2.92084 5.84074,5.03217 1.98883,3.42651 3.55998,7.14852 3.22749,7.64582 -0.16972,0.25386 -0.36369,0.7732 -0.43104,1.15411 -0.24049,1.36018 -1.68502,2.37703 -5.05226,3.55645 -1.7488,0.61254 -3.24534,1.17942 -3.32565,1.25974 -0.0803,0.0803 -0.98705,0.42925 -2.01497,0.77542 -1.02792,0.34616 -1.99803,0.75848 -2.15581,0.91625 -0.15778,0.15778 -1.18714,0.64327 -2.28748,1.07888 -3.03781,1.20261 -5.78707,2.45066 -6.11018,2.77377 -0.15922,0.15922 -0.93099,0.37837 -1.71504,0.48699 -0.78406,0.10862 -1.58216,0.34893 -1.77357,0.53402 -0.43081,0.4166 -3.694,1.59542 -5.71953,2.06618 -1.19344,0.27738 -1.65689,0.22906 -2.21802,-0.23127 -0.5015,-0.4114 -0.65822,-0.74973 -0.53487,-1.15464 z m 5.48208,87.45747 c 0.82695,-0.44076 2.99171,-0.98132 4.91082,-1.22628 0.96415,-0.12305 2.34462,-0.44818 3.06773,-0.72252 0.72311,-0.27431 2.20033,-0.61273 3.28271,-0.75197 1.88915,-0.24305 4.99208,-0.9893 7.85876,-1.89001 0.74467,-0.23397 1.65468,-0.4254 2.02223,-0.4254 0.83143,0 3.8331,-1.13687 6.64547,-2.51694 l 2.13322,-1.04682 1.0806,0.72457 c 2.20598,1.47917 3.50143,2.93239 3.70643,4.15791 0.10715,0.64057 0.45067,1.78778 0.76338,2.54934 0.97921,2.38473 1.19815,5.32882 0.57175,7.68828 -1.01659,3.82923 -2.53748,7.57209 -3.12423,7.68864 -0.29951,0.0595 -0.8039,0.28956 -1.12086,0.51129 -1.13185,0.79173 -2.87231,0.48931 -6.08729,-1.0577 -1.66971,-0.80348 -3.12878,-1.46085 -3.24236,-1.46085 -0.11358,0 -1.00148,-0.39442 -1.9731,-0.8765 -0.97162,-0.48207 -1.94914,-0.87649 -2.17228,-0.87649 -0.22313,0 -1.29429,-0.38458 -2.38037,-0.85461 -2.99843,-1.29768 -5.82496,-2.3592 -6.2819,-2.3592 -0.22517,0 -0.92586,-0.39077 -1.55707,-0.86837 -0.63122,-0.4776 -1.36549,-0.87203 -1.63172,-0.8765 -0.5992,-0.01 -3.74018,-1.48393 -5.50532,-2.58329 -1.04003,-0.64776 -1.33357,-1.00963 -1.40485,-1.73192 -0.0637,-0.64551 0.0647,-0.99558 0.43825,-1.19466 z m -70.973,94.32491 c 0.44076,0.8269 0.98131,2.9917 1.22626,4.9108 0.12306,0.9641 0.44819,2.3446 0.72252,3.0677 0.27433,0.7231 0.61273,2.2004 0.75198,3.2827 0.24306,1.8892 0.98931,4.9921 1.89001,7.8588 0.23397,0.7447 0.42541,1.6547 0.42541,2.0222 0,0.8315 1.13687,3.8331 2.51694,6.6455 l 1.0468,2.1332 -0.72456,1.0806 c -1.47916,2.206 -2.9324,3.5015 -4.1579,3.7064 -0.64058,0.1072 -1.78778,0.4507 -2.54933,0.7634 -2.38474,0.9792 -5.32883,1.1982 -7.68831,0.5718 -3.82922,-1.0166 -7.57205,-2.5375 -7.68859,-3.1243 -0.0595,-0.2995 -0.28957,-0.8038 -0.51129,-1.1208 -0.79174,-1.1319 -0.48932,-2.8723 1.0577,-6.0873 0.80345,-1.6697 1.46082,-3.1288 1.46082,-3.2423 0,-0.1136 0.39442,-1.0015 0.87649,-1.9732 0.48208,-0.9716 0.8765,-1.9491 0.8765,-2.1722 0,-0.2232 0.38457,-1.2943 0.85462,-2.3804 1.29767,-2.9984 2.35919,-5.825 2.35919,-6.2819 0,-0.2252 0.39076,-0.9259 0.86837,-1.5571 0.4776,-0.6312 0.87202,-1.3655 0.87649,-1.6317 0.0101,-0.5992 1.48392,-3.7402 2.5833,-5.5053 0.64775,-1.04 1.00964,-1.3336 1.73191,-1.4049 0.64552,-0.064 0.99558,0.065 1.19467,0.4383 z M 48.625498,931.00458 c -0.826946,0.44076 -2.991708,0.98132 -4.910823,1.22627 -0.964144,0.12306 -2.344619,0.44818 -3.067726,0.72252 -0.723108,0.27432 -2.200328,0.61273 -3.28271,0.75198 -1.889154,0.24305 -4.99208,0.98929 -7.858762,1.89004 -0.744672,0.23396 -1.654677,0.42539 -2.022229,0.42539 -0.831434,0 -3.833104,1.13687 -6.645475,2.51697 l -2.133214,1.0468 -1.080597,-0.72457 c -2.205984,-1.47917 -3.501436,-2.9324 -3.70643,-4.15794 -0.107152,-0.64057 -0.450673,-1.78776 -0.763383,-2.54932 -0.97921,-2.38473 -1.19815,-5.32885 -0.571749,-7.68831 1.01659,-3.82923 2.537477,-7.57206 3.124231,-7.6886 0.299513,-0.0595 0.8039,-0.28957 1.120864,-0.51129 1.131845,-0.79174 2.872305,-0.48932 6.087282,1.05769 1.669715,0.80346 3.128777,1.46083 3.242359,1.46083 0.113585,0 1.001479,0.39442 1.973102,0.87649 0.971619,0.48207 1.949144,0.87649 2.172276,0.87649 0.223132,0 1.294298,0.38458 2.380376,0.85461 2.998425,1.29768 5.824955,2.35921 6.281897,2.35921 0.225174,0 0.925858,0.39077 1.557074,0.86837 0.631216,0.4776 1.365484,0.87202 1.631714,0.87649 0.599203,0.01 3.740178,1.48393 5.505323,2.58329 1.040027,0.64776 1.333571,1.00966 1.404847,1.73192 0.0637,0.64551 -0.06471,0.99558 -0.438247,1.19467 z m 18.922725,78.70832 c -0.971231,-0.9819 -1.078324,-1.2557 -1.221052,-3.1215 -0.604106,-7.89709 -0.843953,-12.03128 -1.08479,-18.69854 -0.150921,-4.17795 -0.331108,-8.84528 -0.400421,-10.37184 -0.06931,-1.52656 -0.209213,-5.73373 -0.310889,-9.34927 -0.101679,-3.61554 -0.331563,-9.46614 -0.510853,-13.00133 -0.179293,-3.53519 -0.356301,-9.583 -0.393353,-13.43957 -0.03705,-3.85658 -0.145375,-8.58967 -0.24072,-10.51796 -0.09535,-1.92829 -0.247695,-10.26865 -0.338555,-18.5342 -0.09086,-8.26551 -0.220733,-15.11806 -0.288603,-15.22788 -0.06787,-0.1098 -0.137601,-1.49851 -0.154955,-3.08599 -0.01735,-1.58748 -0.160779,-3.74091 -0.318723,-4.7854 -0.601885,-3.98033 -0.894894,-12.98344 -0.935026,-28.72995 -0.03486,-13.67917 0.0246,-16.36793 0.36832,-16.65338 0.22544,-0.18723 1.540181,-0.43835 2.921647,-0.55804 4.295665,-0.37219 88.65091,-0.3332 94.10538,0.0435 3.50249,0.24189 8.21612,0.25283 17.23771,0.04 6.82935,-0.16112 12.81142,-0.18768 13.29349,-0.059 0.48207,0.12865 1.02427,0.52894 1.20489,0.88954 0.18062,0.3606 0.69976,1.04325 1.15365,1.51701 0.61727,0.64429 0.88107,1.2839 1.04671,2.53781 0.31363,2.37418 0.89491,10.51746 0.84594,11.85087 -0.0226,0.61454 0.0982,4.03286 0.26831,7.59628 0.17015,3.56341 0.36776,8.97693 0.43915,12.03005 0.0714,3.05312 0.27575,8.64077 0.45414,12.417 0.1784,3.77623 0.37014,8.44356 0.42611,10.37185 0.056,1.92828 0.26984,7.25298 0.47527,11.83267 0.20543,4.57968 0.39761,9.50996 0.42706,10.95617 0.0924,4.53749 0.39622,11.30484 0.60993,13.58569 0.11293,1.20518 0.24478,4.75498 0.29302,7.88844 0.12395,8.0527 0.22437,10.32215 0.47423,10.71739 0.20938,0.33117 0.39506,4.46764 0.6297,14.02785 0.0599,2.44185 0.20904,4.60168 0.33135,4.79956 0.12231,0.19792 0.32391,2.67013 0.44801,5.49384 0.43754,9.95545 0.56482,11.88193 0.97621,14.77544 0.47829,3.36399 0.57113,4.76199 0.50208,7.56019 l -0.0496,2.0092 -1.97211,1.8629 c -1.65615,1.5644 -2.08914,1.833 -2.70253,1.6765 -0.83376,-0.2127 -4.47735,-0.2824 -30.67729,-0.587 -24.80106,-0.2883 -26.13211,-0.2891 -38.41965,-0.024 -5.78486,0.1249 -15.90836,0.2869 -22.49668,0.3599 -19.461087,0.2157 -29.336054,0.4427 -32.199638,0.7402 -1.480054,0.1538 -2.794795,0.2709 -2.921647,0.2603 -0.126849,-0.01 -0.709709,-0.5036 -1.295242,-1.0956 z m 9.683462,-2.1475 c 2.651394,-0.1663 8.239043,-0.3523 12.416998,-0.4133 4.177955,-0.061 8.122178,-0.1796 8.76494,-0.2637 0.642762,-0.084 6.887787,-0.217 13.877817,-0.2955 6.99004,-0.078 16.52192,-0.2394 21.18194,-0.3575 4.66003,-0.1182 10.77357,-0.1881 13.58566,-0.1555 2.81208,0.033 7.08499,0.039 9.49535,0.014 2.41036,-0.025 4.90837,-0.03 5.55113,-0.013 9.72603,0.2674 34.19323,0.1904 34.67791,-0.1091 0.40039,-0.2475 0.24018,-6.26336 -0.23249,-8.73011 -0.24633,-1.28552 -0.62954,-5.95285 -0.85159,-10.37185 -0.22204,-4.41899 -0.6107,-11.7158 -0.86369,-16.21513 -0.25299,-4.49934 -0.3966,-8.53104 -0.31913,-8.95935 0.0775,-0.42828 0.0235,-1.54581 -0.11995,-2.4834 -0.14344,-0.93756 -0.34562,-5.05725 -0.44928,-9.15486 -0.19599,-7.74666 -0.29447,-10.14408 -0.55809,-13.58566 -0.35181,-4.59312 -0.56853,-10.40495 -0.49569,-13.29352 0.0425,-1.68725 -0.0601,-3.92231 -0.22807,-4.9668 -0.32508,-2.0214 -0.69459,-9.94155 -0.7565,-16.21514 -0.0206,-2.08898 -0.13703,-5.83599 -0.25871,-8.32669 -0.12167,-2.49071 -0.34245,-8.80146 -0.49063,-14.02391 -0.31624,-11.14602 -0.48559,-15.75445 -0.76231,-20.74369 -0.11141,-2.00863 -0.18023,-3.74698 -0.15293,-3.86303 0.0915,-0.38916 -1.09376,-7.90106 -1.27533,-8.08255 -0.0986,-0.0986 -8.28685,-0.18543 -18.19605,-0.19302 -9.90921,-0.008 -18.35067,-0.11351 -18.75881,-0.23539 -0.40813,-0.12188 -1.55027,-0.0914 -2.53809,0.0676 -1.32166,0.21285 -2.44089,0.18485 -4.23755,-0.10599 -1.41631,-0.22927 -3.78564,-0.34917 -5.64252,-0.28555 -1.76054,0.0603 -4.51573,0.12769 -6.12264,0.14972 -2.11266,0.029 -42.741099,-0.19976 -57.118189,-0.32156 -5.366472,-0.0455 -11.144092,0.23173 -11.461748,0.54989 -0.267217,0.26765 -0.38037,1.7355 -0.404716,5.25008 -0.01858,2.6832 -0.117017,8.53985 -0.218729,13.01479 -0.105363,4.63542 -0.06453,9.22387 0.09491,10.66401 0.153912,1.39026 0.42746,5.48592 0.607887,9.10145 0.180423,3.61554 0.370958,7.42829 0.423405,8.47278 0.05245,1.04449 0.245225,2.81045 0.428389,3.92433 0.201284,1.22405 0.25272,3.01551 0.130019,4.52855 -0.111654,1.37682 -0.190146,2.76624 -0.174431,3.08762 0.05543,1.13343 0.359777,11.80796 0.628922,22.05844 0.149782,5.70451 0.258493,12.7384 0.24158,15.63083 -0.01692,2.89243 0.08897,6.68041 0.235289,8.41771 0.146322,1.73732 0.161146,3.44205 0.03294,3.78832 -0.128202,0.34627 -0.09967,1.22566 0.0634,1.95414 0.163069,0.72852 0.431951,5.20305 0.597515,9.94342 0.165564,4.74037 0.382864,10.26228 0.482892,12.27091 0.100029,2.00864 0.218212,6.36972 0.26263,9.69128 0.04442,3.32156 0.221835,6.47691 0.394256,7.01195 0.172424,0.53502 0.311319,1.63011 0.308654,2.43356 -0.01221,3.68592 0.402551,9.67912 0.694447,10.03462 0.227,0.2765 0.673655,0.3358 1.505512,0.2 0.650517,-0.1062 3.352082,-0.3292 6.003476,-0.4956 z m 5.014314,-16.98579 c -0.197077,-0.23747 -0.417293,-1.13635 -0.489367,-1.9975 -0.07208,-0.86116 -0.215863,-2.47189 -0.319529,-3.57943 -0.23218,-2.48056 0.305619,-5.02739 1.180036,-5.58826 1.111353,-0.71285 12.570428,-0.58582 13.456026,0.14915 0.359564,0.29842 0.441388,1.21964 0.441388,4.9694 0,4.96189 -0.02784,5.0555 -1.608539,5.40598 -0.481175,0.10667 -1.072072,0.27303 -1.313108,0.36965 -0.241036,0.0966 -1.752988,0.19639 -3.359894,0.22169 -1.606905,0.0254 -3.980732,0.14392 -5.27517,0.26356 -1.912019,0.1767 -2.420739,0.1365 -2.711843,-0.21424 z m 26.247301,-3.70932 -2.77556,-0.14609 0,-1.16369 c 0,-1.12512 0.0387,-1.1712 1.16866,-1.39018 0.86429,-0.16746 29.64367,-0.63145 38.33985,-0.6181 1.04906,0.003 2.12495,0.80056 2.12495,1.57798 0,0.2787 -0.23884,0.80164 -0.53075,1.16215 l -0.53075,0.65544 -17.51042,0.0343 c -9.63073,0.0187 -18.75942,-0.0315 -20.28598,-0.11181 z m -16.653382,-22.7587 c -0.801671,-0.4468 -3.78554,-0.62605 -5.063737,-0.3042 -0.791818,0.19938 -1.886408,0.22754 -2.959219,0.0761 -2.684657,-0.37891 -2.901504,-0.83471 -2.930762,-6.16055 -0.02212,-4.02706 0.01683,-4.34616 0.602157,-4.93399 0.776451,-0.77979 3.371508,-1.06211 8.515534,-0.92646 3.999252,0.10547 4.607662,0.37263 4.507248,1.97927 -0.08175,1.30805 -0.09823,1.8002 -0.09831,2.93556 -3.8e-5,0.56241 -0.01598,1.67994 -0.03544,2.4834 -0.01946,0.80345 0.06843,1.80306 0.195297,2.22132 0.191891,0.63266 0.06173,0.93963 -0.774257,1.82603 -1.056236,1.11996 -1.248922,1.19899 -1.958505,0.80351 z m 15.887332,-6.38905 c -0.54007,-0.54007 -0.50699,-1.04373 0.11934,-1.81721 0.47021,-0.58068 0.94087,-0.67469 4.74768,-0.94822 4.91916,-0.35346 6.43757,-0.35396 16.0584,-0.005 4.0074,0.14527 8.5726,0.14997 10.37184,0.0108 4.44774,-0.34426 16.59592,-0.30773 17.9391,0.0539 0.60769,0.16364 1.32922,0.54538 1.60339,0.84835 0.45617,0.50405 0.45895,0.59038 0.0328,1.01653 -0.85503,0.85502 -3.21785,1.36286 -4.90612,1.05443 -0.83697,-0.15289 -3.75683,-0.21025 -6.48857,-0.12745 -7.51242,0.22772 -13.20541,0.26476 -22.05843,0.14363 -4.41899,-0.0604 -10.05555,-0.0462 -12.52568,0.0316 -3.57053,0.11249 -4.57368,0.059 -4.89376,-0.2611 z m -24.392549,-20.341 c -1.042964,-0.52879 -1.807427,-1.81286 -2.059016,-3.45856 -0.570358,-3.7308 -0.826397,-7.5763 -0.540058,-8.11131 0.387267,-0.72363 1.296718,-0.9898 2.033928,-0.59523 0.672098,0.35969 5.085623,0.18234 7.188197,-0.28886 2.455898,-0.55038 2.738065,-0.033 2.875669,5.27302 l 0.08536,3.29138 c 1.563969,2.84501 -0.297883,3.7809 -2.4645,3.89449 -1.407223,0.0659 -3.44044,0.1649 -4.518262,0.22006 -1.077819,0.0552 -2.248414,-0.0461 -2.601317,-0.22499 z m 65.011529,-6.00142 c -0.18492,-0.18491 -19.41929,-0.31124 -37.8785,-0.24874 -1.97145,0.007 -3.14308,-0.60557 -3.14308,-1.64244 0,-1.39853 0.10341,-1.40984 12.63175,-1.38086 6.4702,0.0149 12.15842,0.005 12.64049,-0.0219 1.10059,-0.0616 2.26853,-0.0603 16.93002,0.0184 8.05642,0.0433 12.08755,0.1675 12.34395,0.38031 1.06626,0.88491 -0.26958,2.43563 -2.34234,2.71915 -1.68411,0.23034 -10.98159,0.3766 -11.18229,0.17591 z M 90.571751,901.85034 c -5.041085,-0.14126 -5.230726,-0.16872 -5.770252,-0.83579 -0.777243,-0.96099 -0.706665,-1.75156 0.186687,-2.09123 0.419663,-0.15955 4.207268,-0.2735 8.680157,-0.26117 7.430147,0.0204 7.987527,0.0589 8.750807,0.60236 1.02687,0.7312 1.03993,1.54862 0.0353,2.20692 -0.87451,0.573 -2.784541,0.63391 -11.882648,0.37891 z M 116.82,901.62485 c -1.21265,-0.41914 -1.47621,-0.63806 -1.55138,-1.28871 -0.16139,-1.39702 0.50914,-1.51961 8.93812,-1.6342 8.14831,-0.11075 9.51656,0.0496 9.86796,1.15677 0.13568,0.42753 -0.0313,0.82408 -0.57689,1.36973 -0.64313,0.64323 -1.01599,0.76375 -2.29522,0.74178 -8.13808,-0.13969 -11.58105,-0.14056 -12.19524,-0.003 -0.39959,0.0894 -1.3839,-0.0646 -2.18735,-0.34227 z m 53.00761,-15.66161 c -0.20822,-0.21754 -17.13848,-1.10014 -19.7912,-1.03172 -1.07514,0.0278 -4.25559,-0.0372 -7.06768,-0.14418 -12.8845,-0.49037 -13.23277,-0.49443 -24.39575,-0.28507 -11.94156,0.22398 -16.47872,0.24767 -20.597604,0.10761 -1.205179,-0.041 -3.308765,-0.10576 -4.674635,-0.14398 -1.36587,-0.0382 -3.544553,-0.16782 -4.841522,-0.28804 -2.158682,-0.20531 -8.64122,1.23281 -8.151192,-1.12484 0.369769,-1.11548 0.506371,-13.67021 0.16862,-15.49726 -0.413808,-2.23851 0.196121,-4.35971 1.38212,-4.80678 1.935778,-0.72971 9.838443,-0.88368 27.803193,-0.5417 5.54383,0.10553 11.5259,0.16431 13.29349,0.13065 3.33386,-0.0634 10.77559,-0.0666 27.75565,-0.0114 5.46348,0.0178 12.90933,0.0289 16.54635,0.0248 5.01947,-0.006 6.81453,0.0892 7.4502,0.39387 1.22104,0.58524 1.59191,1.97433 1.24391,4.65921 -0.15412,1.18905 -0.28078,5.15147 -0.28148,8.80537 -0.48181,2.14546 1.31356,9.00954 0.36371,9.43742 -0.64383,0.26753 -5.99197,0.54004 -6.20618,0.31624 z m -39.37258,-53.55796 c -0.44076,-0.82694 -0.98131,-2.99171 -1.22625,-4.91082 -0.12306,-0.96415 -0.4482,-2.34462 -0.72253,-3.06773 -0.27433,-0.72311 -0.61272,-2.20033 -0.75198,-3.28271 -0.24306,-1.88916 -0.9893,-4.99208 -1.89001,-7.85876 -0.23397,-0.74468 -0.42541,-1.65468 -0.42541,-2.02223 0,-0.83144 -1.13687,-3.83311 -2.51694,-6.64548 l -1.0468,-2.13321 0.72456,-1.0806 c 1.47916,-2.20598 2.93241,-3.50143 4.1579,-3.70643 0.64058,-0.10715 1.78778,-0.45067 2.54933,-0.76338 2.38474,-0.97921 5.32883,-1.19815 7.68831,-0.57175 3.82922,1.01659 7.57205,2.53748 7.68859,3.12423 0.0595,0.29951 0.28957,0.8039 0.51129,1.12086 0.79174,1.13185 0.48932,2.87231 -1.0577,6.08729 -0.80345,1.66971 -1.46082,3.12877 -1.46082,3.24236 0,0.11358 -0.39442,1.00147 -0.87649,1.9731 -0.48208,0.97162 -0.8765,1.94914 -0.8765,2.17227 0,0.22314 -0.38458,1.2943 -0.85462,2.38038 -1.29767,2.99843 -2.35919,5.82495 -2.35919,6.2819 0,0.22517 -0.39076,0.92586 -0.86837,1.55707 -0.4776,0.63122 -0.87202,1.36549 -0.87649,1.63172 -0.01,0.5992 -1.48392,3.74018 -2.5833,5.50532 -0.64775,1.04002 -1.00964,1.33357 -1.73191,1.40485 -0.64552,0.0637 -0.99558,-0.0647 -1.19467,-0.43825 z" />
  </g>
</svg>
