<?xml version="1.0" encoding="UTF-8" standalone="no"?>
<!-- Created with Inkscape (http://www.inkscape.org/) -->

<svg
   xmlns:dc="http://purl.org/dc/elements/1.1/"
   xmlns:cc="http://creativecommons.org/ns#"
   xmlns:rdf="http://www.w3.org/1999/02/22-rdf-syntax-ns#"
   xmlns:svg="http://www.w3.org/2000/svg"
   xmlns="http://www.w3.org/2000/svg"
   xmlns:sodipodi="http://sodipodi.sourceforge.net/DTD/sodipodi-0.dtd"
   xmlns:inkscape="http://www.inkscape.org/namespaces/inkscape"
   viewBox="0 0 256 256"
   id="svg2992"
   version="1.1">
  <title
     id="title3023">Share Lists</title>
  <defs
     id="defs2994" />
  <metadata
     id="metadata2997">
    <rdf:RDF>
      <cc:Work
         rdf:about="">
        <dc:format>image/svg+xml</dc:format>
        <dc:type
           rdf:resource="http://purl.org/dc/dcmitype/StillImage" />
        <dc:title>Share Lists</dc:title>
        <dc:date>07/02/2013</dc:date>
        <dc:creator>
          <cc:Agent>
            <dc:title>Adam Johnston</dc:title>
          </cc:Agent>
        </dc:creator>
      </cc:Work>
    </rdf:RDF>
  </metadata>
  <g
     inkscape:label="ShareLists"
     inkscape:groupmode="layer"
     id="layer1"
     transform="translate(0,-796.36218)">
    <path
       style="fill:#fff"
       d="m 41.203064,1024.8716 c -0.205785,-0.3845 -0.07318,-0.7793 0.714961,-2.1288 0.532182,-0.9112 0.967602,-1.7263 0.967602,-1.8113 0,-0.085 0.327571,-0.6307 0.727934,-1.2127 0.400364,-0.5818 1.060162,-1.8409 1.466218,-2.7978 0.406053,-0.9569 0.927259,-2.0093 1.158233,-2.3387 0.230975,-0.3293 0.972975,-1.6492 1.648892,-2.9331 0.675916,-1.2838 1.697153,-2.9546 2.269419,-3.7128 0.572266,-0.7582 1.643696,-2.4026 2.380953,-3.6542 1.409203,-2.3923 1.756368,-2.9013 3.559215,-5.21833 0.612805,-0.78758 1.250408,-1.68728 1.416894,-1.9993 0.300469,-0.56316 1.463259,-2.01291 3.125876,-3.89729 0.476412,-0.53997 1.053857,-1.35902 1.283212,-1.82013 0.229356,-0.46111 0.809694,-1.22811 1.289642,-1.70446 0.479946,-0.47634 1.26948,-1.33868 1.754518,-1.9163 3.372203,-4.01593 4.623097,-5.35904 8.458911,-9.08247 2.370772,-2.30131 5.065576,-4.95207 5.988451,-5.89055 1.737276,-1.76667 7.205264,-6.64948 10.02606,-8.9531 0.88728,-0.7246 2.182558,-1.80252 2.878394,-2.39538 4.253245,-3.62378 9.512711,-7.60107 11.610771,-8.78022 1.0986,-0.61743 2.16197,-1.3737 2.36304,-1.68057 0.65019,-0.99231 2.2268,-0.62611 2.2268,0.51721 0,0.27518 0.21558,0.92316 0.47907,1.43998 0.2635,0.51683 0.47908,1.07052 0.47908,1.23044 0,0.15991 0.48507,1.26543 1.07792,2.45665 0.59286,1.19125 1.07792,2.36345 1.07792,2.60491 0,0.59994 -0.46291,1.01391 -1.13379,1.01391 -0.30739,0 -1.06913,0.25856 -1.69275,0.57456 -0.62362,0.31602 -1.56537,0.69078 -2.09278,0.83278 -0.52741,0.14202 -1.60353,0.65118 -2.39137,1.13146 -0.78785,0.48029 -1.91751,1.10554 -2.51037,1.38946 -0.59285,0.28392 -1.3474,0.68311 -1.67676,0.88706 -2.103314,1.30237 -3.559076,2.08601 -4.126663,2.2214 -0.359346,0.0857 -1.222588,0.61252 -1.918317,1.17067 -0.695729,0.55815 -2.218556,1.66158 -3.38406,2.45206 -5.354262,3.63139 -9.787235,7.59539 -20.224845,18.08512 -6.845983,6.88018 -7.409221,7.47548 -8.498872,8.98268 -0.476235,0.65873 -1.200886,1.41327 -1.610331,1.67676 -0.409445,0.2635 -1.496368,1.50309 -2.415384,2.75469 -2.37732,3.2376 -3.19041,4.3004 -4.123202,5.3896 -0.451323,0.527 -1.423848,1.8744 -2.16117,2.9942 -1.785771,2.7122 -2.784177,4.15 -2.9891,4.3045 -0.09268,0.07 -0.78471,1.0432 -1.537836,2.1631 -0.753127,1.1198 -1.681596,2.4672 -2.063264,2.9942 -1.007715,1.3914 -2.368741,3.5424 -2.696427,4.2617 -0.372832,0.8182 -0.868632,0.9853 -1.182695,0.3984 z m 1.203487,-65.01321 c 0,-0.49127 1.350626,-2.23223 2.624805,-3.38338 0.569368,-0.51441 1.688418,-1.7984 2.486779,-2.85333 0.798361,-1.05495 2.480745,-2.97561 3.738633,-4.26816 1.257886,-1.29255 2.395136,-2.55101 2.527223,-2.79656 0.689735,-1.28222 5.785967,-6.2971 8.888481,-8.74656 0.50061,-0.39524 1.723816,-1.48825 2.718235,-2.42892 0.994418,-0.94067 2.077513,-1.93288 2.406878,-2.20492 4.065615,-3.35814 8.302796,-6.60781 9.730635,-7.46284 0.550013,-0.32936 1.469065,-0.99099 2.042337,-1.47028 0.573272,-0.47929 1.958547,-1.28369 3.078388,-1.78758 1.11984,-0.50387 2.118992,-1.04905 2.220338,-1.21149 0.101343,-0.16245 0.815076,-0.6159 1.58607,-1.00768 1.688882,-0.85825 3.456536,-1.18421 3.995593,-0.73685 0.49478,0.41064 1.717591,2.31097 2.971889,4.61851 0.885644,1.62932 0.985296,1.95578 0.752762,2.46614 -1.726504,1.00877 -2.702197,1.85546 -3.46126,2.09218 -0.708762,0.35858 -1.866607,1.02433 -2.572991,1.47943 -0.706381,0.4551 -1.455354,0.82746 -1.664384,0.82746 -0.209033,0 -1.27166,0.43117 -2.361395,0.95815 -1.089733,0.52699 -2.110446,0.95816 -2.268246,0.95816 -0.157803,0 -0.661796,0.30814 -1.119989,0.68474 -0.458191,0.3766 -1.090044,0.76573 -1.404117,0.86471 -0.314075,0.099 -1.213076,0.57233 -1.997779,1.0519 -0.784705,0.47956 -1.713449,1.03364 -2.063876,1.23125 -0.350428,0.19762 -1.185357,0.70837 -1.855397,1.13501 -0.670043,0.42661 -1.843749,1.09119 -2.608237,1.4768 -0.764488,0.38563 -1.455881,0.80765 -1.536431,0.93784 -0.224593,0.36299 -2.388017,1.86981 -3.859291,2.68797 -2.132358,1.18579 -2.930082,1.71814 -4.472439,2.9846 -0.802232,0.65873 -2.145221,1.73473 -2.984421,2.39112 -2.040395,1.59589 -4.035869,3.30363 -5.81145,4.97343 -0.804804,0.75687 -1.546972,1.37667 -1.64926,1.37734 -0.10229,0 -1.33995,1.13307 -2.750354,2.5164 -2.355781,2.31056 -2.639073,2.51515 -3.482723,2.51515 -0.505093,0 -1.126847,0.11157 -1.381677,0.24797 -0.364026,0.19481 -0.463329,0.16959 -0.463329,-0.11771 z M 0.02327633,949.0867 c -0.22583648,-0.27209 -0.08228132,-0.69701 0.70805055,-2.09596 0.54523652,-0.96508 1.18688712,-1.97025 1.42594612,-2.23374 0.239035,-0.26349 0.8921834,-1.30347 1.4514329,-2.31106 0.5592256,-1.00757 1.5948204,-2.45802 2.3012661,-3.2232 0.7064696,-0.76516 1.2844749,-1.42921 1.2844749,-1.47563 0,-0.0978 1.6030606,-2.17795 2.9942251,-3.8854 0.526984,-0.64678 1.281529,-1.62261 1.676767,-2.16847 0.395238,-0.54588 1.365367,-1.72436 2.155842,-2.61885 0.790476,-0.89445 1.814501,-2.15129 2.275612,-2.79291 0.461111,-0.64163 1.061968,-1.34815 1.335233,-1.57006 0.273265,-0.22188 1.29729,-1.34706 2.275611,-2.50039 3.879774,-4.57376 5.716193,-6.57882 9.05212,-9.88332 1.912855,-1.89484 3.910746,-3.75871 4.43979,-4.14194 0.52902,-0.38322 1.130619,-0.95404 1.33691,-1.26848 0.206266,-0.31446 1.396602,-1.52142 2.64517,-2.68218 1.248569,-1.16073 2.909252,-2.73147 3.690393,-3.4905 0.781143,-0.75905 1.525757,-1.38007 1.654698,-1.38007 0.128941,0 0.840862,-0.61981 1.582046,-1.37735 1.315742,-1.34479 4.400606,-3.73099 6.784532,-5.24801 0.653999,-0.41618 1.585507,-1.14377 2.070019,-1.61688 0.484511,-0.47312 0.947016,-0.86021 1.027785,-0.86021 0.255635,0 3.364358,-1.99801 4.983015,-3.20265 0.856348,-0.63731 2.042062,-1.43495 2.634919,-1.77253 0.592856,-0.33758 1.293505,-0.80339 1.556997,-1.03509 0.263492,-0.23173 1.064533,-0.65112 1.780093,-0.93197 0.71556,-0.28089 1.416209,-0.65849 1.556998,-0.83911 0.140788,-0.18063 0.724784,-0.451 1.297769,-0.60085 2.769415,-1.61224 4.362139,1.34541 5.13503,2.82094 0.461224,0.88488 1.011078,1.93226 1.221901,2.3275 0.210824,0.39523 0.383979,0.85764 0.384791,1.02757 7.19e-4,0.16993 0.21706,0.73155 0.480552,1.24804 0.778764,1.5265 0.57126,2.15584 -0.710825,2.15584 -0.237657,0 -0.740853,0.16102 -1.118214,0.35782 -0.377361,0.19681 -0.872129,0.3585 -1.099486,0.35931 -0.545582,0.002 -12.33113,5.9684 -13.400399,6.78398 -0.457019,0.34858 -1.260356,0.78528 -1.785189,0.97047 -0.84542,0.29827 -2.90809,1.55151 -4.642003,2.82039 -1.393081,1.01947 -4.559314,3.07222 -6.227989,4.03777 -0.988095,0.57176 -2.227704,1.38333 -2.754688,1.80351 -0.526984,0.4202 -1.490427,1.0709 -2.140984,1.44604 -0.650557,0.37512 -1.536962,1.07404 -1.969786,1.55312 -0.432821,0.47907 -1.660909,1.38714 -2.729057,2.01789 -1.068148,0.63075 -1.995376,1.2856 -2.060459,1.45522 -0.06508,0.16964 -0.543464,0.58974 -1.063046,0.9336 -0.519582,0.34383 -1.53666,1.16123 -2.260161,1.81646 -0.723525,0.65521 -1.395429,1.1913 -1.493136,1.1913 -0.09771,0 -1.740388,1.52566 -3.650417,3.39037 -1.910028,1.86473 -3.957839,3.69044 -4.550696,4.05715 -1.225692,0.75819 -4.854119,4.59264 -6.009483,6.35073 -0.423934,0.64508 -0.942941,1.31092 -1.153352,1.47965 -0.527846,0.42327 -6.4908339,6.31789 -6.4908339,6.41644 0,0.29966 -1.5413555,2.27259 -2.0210066,2.58686 -0.6446927,0.42243 -2.8309805,3.09551 -3.6996892,4.52342 -0.5023113,0.82568 -1.34826391,1.61671 -1.72893779,1.61671 -0.0863056,0 -0.28437958,-0.15359 -0.44015118,-0.34129 z M 143.49162,948.71549 c -2.30479,-0.28513 -3.41736,-0.97612 -6.3151,-3.92215 -1.46717,-1.49161 -2.93706,-3.17237 -3.26643,-3.735 -0.32936,-0.56263 -1.06846,-1.61705 -1.64244,-2.34311 -0.57399,-0.72609 -1.31026,-1.92735 -1.63616,-2.66949 -0.32591,-0.74213 -0.83638,-1.61882 -1.13439,-1.94818 -0.77285,-0.8542 -2.00331,-3.11635 -4.82079,-8.86291 -0.16148,-0.32937 -0.58115,-1.35339 -0.9326,-2.27561 -0.84949,-2.2291 -1.07869,-2.66724 -3.00746,-5.74892 -2.02157,-3.22995 -3.71858,-6.26583 -3.94998,-7.06637 -0.25759,-0.89113 -2.20855,-4.43435 -3.50591,-6.36723 -0.62619,-0.93293 -1.42055,-2.33423 -1.76524,-3.114 -0.34469,-0.77977 -0.87894,-1.68723 -1.18722,-2.0166 -0.30827,-0.32936 -0.90933,-1.29949 -1.33567,-2.15584 -0.42634,-0.85635 -1.08448,-1.91108 -1.46255,-2.34383 -0.37806,-0.43275 -0.68739,-0.93274 -0.68739,-1.11108 0,-0.4464 -2.32732,-4.92277 -3.6212,-6.965 -1.8121,-2.86018 -4.01194,-7.54108 -4.572888,-9.73037 l -0.529142,-2.06515 c -1.613905,-3.38648 2.05346,-8.70794 3.88602,-9.25163 0.50082,-0.34707 1.03171,-0.63103 1.17975,-0.63103 0.14804,0 0.46562,-0.24559 0.70574,-0.54575 0.62557,-0.78201 2.18133,-1.61406 5.46687,-2.92379 1.58095,-0.63022 2.98225,-1.22856 3.114,-1.32964 0.26013,-0.19959 1.82722,-0.76935 7.54545,-2.74335 2.04206,-0.70494 4.62907,-1.70695 5.74891,-2.22669 2.31201,-1.07305 5.4837,-2.20769 6.17121,-2.20769 0.25388,0 0.6525,-0.21093 0.88582,-0.46875 0.39683,-0.43849 2.52821,-1.34882 4.4408,-1.89671 1.38261,-0.39606 2.71527,-0.91846 4.63048,-1.81514 0.99819,-0.46733 2.00047,-0.8497 2.22729,-0.8497 0.22682,0 1.1917,-0.38506 2.14418,-0.85568 0.95248,-0.47063 2.73909,-1.21444 3.97025,-1.65291 1.23115,-0.43847 3.31638,-1.24746 4.63384,-1.79776 1.31746,-0.55029 3.18567,-1.26346 4.15157,-1.58482 0.96591,-0.32135 2.52889,-0.94394 3.47331,-1.38351 0.94441,-0.43958 2.47165,-1.0443 3.39387,-1.34382 0.92223,-0.29952 2.22851,-0.79248 2.90286,-1.09546 0.67434,-0.30298 2.07564,-0.84007 3.11399,-1.19354 1.03835,-0.35346 2.55007,-0.95426 3.35938,-1.33511 0.80932,-0.38084 1.62315,-0.69244 1.80852,-0.69244 0.18537,0 0.44292,-0.10589 0.57234,-0.23531 0.12941,-0.12941 0.71688,-0.39188 1.30548,-0.58326 2.67918,-0.87111 5.78652,-2.06049 6.27253,-2.4009 0.29336,-0.20548 0.76605,-0.3736 1.05042,-0.3736 0.51563,0 2.62775,-0.73581 5.12529,-1.78552 3.85299,-1.61941 5.23479,-2.04055 9.94083,-3.02977 0.65873,-0.13847 1.52872,-0.35128 1.93331,-0.47292 0.40459,-0.12165 0.96407,-0.22117 1.2433,-0.22117 0.27922,0 1.24169,-0.25287 2.13883,-0.56195 2.65004,-0.91296 4.37678,-1.38823 4.58227,-1.26123 0.1058,0.0654 1.19447,0.28019 2.41928,0.47735 1.64763,0.26521 2.48499,0.53362 3.21902,1.0318 1.2318,0.83601 2.98825,2.60375 4.30331,4.33097 1.06705,1.40147 1.24765,1.66374 2.42974,3.52851 0.41758,0.65873 1.39864,2.16782 2.18014,3.35353 1.44776,2.19659 1.55689,2.39886 3.10175,5.74892 0.48603,1.05396 1.12564,2.29357 1.42137,2.75468 0.99555,1.55234 3.72462,6.64087 3.72462,6.94483 0,0.45304 1.2102,3.13549 1.78394,3.95416 0.27698,0.39523 0.81091,1.31147 1.1865,2.03607 0.3756,0.7246 0.97257,1.69473 1.32663,2.15584 0.35407,0.46111 0.98434,1.53903 1.4006,2.39538 0.41627,0.85635 1.348,2.50851 2.07054,3.67147 0.72252,1.16295 1.38736,2.34658 1.4774,2.63028 0.09,0.2837 0.34728,0.78739 0.57166,1.1193 1.14463,1.69337 1.96102,3.09383 3.70309,6.35239 0.28172,0.52698 1.15457,2.02024 1.93966,3.31836 2.73691,4.52543 3.43179,5.78727 3.44906,6.26316 0.01,0.26349 0.17838,0.78782 0.37521,1.16518 0.19681,0.37737 0.35782,0.88572 0.35782,1.12969 0,0.24394 0.15168,0.79754 0.33708,1.23019 1.044,2.43635 2.32817,9.50938 2.00709,11.05481 -0.10137,0.48789 -0.54615,1.44922 -0.98836,2.13629 -0.80068,1.24397 -0.99135,1.37905 -4.58957,3.25137 -1.4717,0.7658 -5.61552,2.66874 -5.81292,2.66944 -0.0966,2.4e-4 -0.82229,0.39548 -1.61276,0.87807 -1.79146,1.09376 -5.22106,2.79774 -6.38847,3.1741 -0.48351,0.15586 -0.9949,0.42293 -1.13644,0.59345 -0.14152,0.17053 -0.71605,0.5095 -1.27672,0.7533 -0.56068,0.24378 -1.2889,0.62199 -1.61827,0.84045 -0.32936,0.21845 -0.91182,0.47304 -1.29435,0.56571 -0.38252,0.0927 -1.13707,0.47091 -1.67676,0.84052 -1.16055,0.79483 -3.51945,1.9353 -4.00288,1.9353 -0.18726,0 -0.73705,0.26948 -1.22176,0.59884 -0.4847,0.32937 -0.96128,0.59885 -1.05907,0.59885 -0.0978,0 -1.66097,0.75454 -3.47374,1.67676 -1.81276,0.92223 -3.53266,1.67677 -3.82199,1.67677 -0.28933,0 -1.61531,0.58272 -2.94662,1.29494 -1.33131,0.71225 -2.89484,1.4214 -3.47451,1.57592 -0.57967,0.15451 -1.65759,0.55101 -2.39538,0.8811 -0.73779,0.33008 -2.09598,0.87261 -3.0182,1.20564 -0.92222,0.33301 -2.41029,0.97066 -3.30682,1.41701 -0.89653,0.44633 -1.97531,0.81153 -2.39729,0.81153 -0.42197,0 -1.27344,0.26948 -1.89215,0.59885 -0.61871,0.32936 -1.28439,0.59884 -1.47929,0.59884 -0.19491,0 -0.88544,0.33013 -1.53453,0.73364 -0.64909,0.4035 -1.92281,0.92868 -2.83049,1.16707 -0.90768,0.23842 -2.24318,0.67663 -2.96778,0.97385 -2.20797,0.90564 -3.39868,1.37971 -5.15007,2.05049 -0.92222,0.3532 -2.70079,1.12044 -3.95238,1.70496 -1.25159,0.58452 -3.40339,1.44094 -4.78178,1.9032 -1.3784,0.46224 -3.45918,1.31399 -4.62396,1.89276 -1.16479,0.57879 -2.70374,1.16066 -3.41989,1.29302 -0.71615,0.1324 -1.70745,0.44679 -2.20288,0.69864 -0.49542,0.25185 -2.03259,0.81098 -3.41592,1.24253 -3.93304,1.22699 -4.64133,1.48674 -5.08844,1.8662 -0.38103,0.32335 -2.08186,0.73344 -5.01264,1.20863 -0.61512,0.0997 -1.27663,0.31267 -1.47001,0.47316 -0.30273,0.25123 -3.42052,1.04523 -3.75935,0.95736 -0.0659,-0.017 -0.71262,-0.10439 -1.43722,-0.19404 z m 7.30591,-4.46988 c 0.92222,-0.33969 1.99374,-0.78607 2.38115,-0.9919 0.38741,-0.20586 1.08806,-0.45237 1.557,-0.5478 2.06999,-0.4213 4.69417,-1.25296 7.91898,-2.50972 6.90749,-2.69197 11.64123,-4.47682 12.81529,-4.83201 0.65873,-0.19929 1.79054,-0.66122 2.51515,-1.02651 0.7246,-0.36532 2.06168,-0.89379 2.97129,-1.17438 0.90961,-0.28062 2.4187,-0.92635 3.35354,-1.43496 0.93483,-0.50863 2.34644,-1.11086 3.13692,-1.33827 0.79047,-0.22742 2.16577,-0.72588 3.05622,-1.10767 0.89044,-0.38183 1.82042,-0.69421 2.06663,-0.69421 0.2462,0 0.58182,-0.16169 0.74583,-0.35931 0.16401,-0.19762 0.40793,-0.3593 0.54205,-0.3593 0.23229,0 1.66827,-0.61485 3.13032,-1.34029 0.37298,-0.18507 0.81739,-0.33648 0.98759,-0.33648 0.41762,0 2.47423,-0.91983 2.63377,-1.17798 0.0701,-0.11339 0.38556,-0.27096 0.70105,-0.35015 0.31549,-0.0792 1.70709,-0.68398 3.09245,-1.344 1.38535,-0.66 2.64806,-1.20002 2.80601,-1.20002 0.15796,0 1.15779,-0.37727 2.22184,-0.83838 1.06404,-0.46111 2.21208,-0.84016 2.55118,-0.84234 0.33911,-0.002 1.04772,-0.26277 1.57471,-0.57915 2.94398,-1.76746 3.92588,-2.26495 4.78999,-2.42693 0.52656,-0.0987 1.38889,-0.41706 1.9163,-0.70747 0.52741,-0.2904 1.64147,-0.7614 2.47568,-1.04664 1.61905,-0.5536 3.8801,-1.63907 5.35917,-2.57276 0.49786,-0.31427 1.7219,-0.83802 2.72008,-1.16387 0.99819,-0.32582 2.10392,-0.79222 2.45719,-1.03643 0.35327,-0.24421 1.12739,-0.63236 1.72024,-0.86255 1.15901,-0.45 2.41452,-1.1318 5.98845,-3.252 1.25158,-0.74247 3.19184,-1.86954 4.31168,-2.50458 2.39356,-1.35737 5.04156,-3.42475 4.88313,-3.81244 -0.16816,-0.41155 -6.11433,-2.21532 -9.67389,-2.93458 -0.98809,-0.19966 -2.28159,-0.52835 -2.87445,-0.73045 -0.59285,-0.2021 -2.12163,-0.62282 -3.39729,-0.93497 -1.27566,-0.31214 -3.32371,-0.90023 -4.55122,-1.30684 -2.05956,-0.68226 -3.00321,-0.94922 -5.9447,-1.68187 -1.49135,-0.37145 -6.39411,-1.94122 -8.62337,-2.76101 -0.46111,-0.1696 -1.48513,-0.49079 -2.27561,-0.71378 -0.79047,-0.22301 -2.20988,-0.66184 -3.15423,-0.97518 -0.94435,-0.31334 -2.02227,-0.56919 -2.39538,-0.56857 -0.37311,0 -1.43292,-0.25542 -2.35514,-0.56905 -0.92222,-0.3136 -2.10794,-0.70045 -2.63492,-0.85967 -0.52699,-0.15923 -1.42717,-0.50167 -2.0004,-0.76102 -0.57324,-0.25935 -1.65064,-0.58402 -2.39421,-0.72146 -0.74358,-0.13747 -1.54112,-0.35116 -1.77232,-0.47491 -0.65364,-0.34982 -1.24635,0.11589 -1.93398,1.51958 -1.18401,2.41694 -3.70414,6.39454 -4.98313,7.86502 -2.00369,2.30371 -3.32227,3.06122 -5.87237,3.37372 -2.91479,0.35718 -8.16284,-0.0852 -10.3621,-0.87342 -0.87005,-0.31183 -2.3111,-0.69246 -3.20235,-0.84584 -2.09295,-0.36014 -2.53085,-0.10302 -3.12325,1.834 -0.41336,1.3516 -1.49219,3.85855 -2.20489,5.12372 -1.50886,2.67844 -7.02018,14.0365 -7.89848,16.27762 -0.32838,0.83795 -0.7416,1.69521 -0.91826,1.90504 -0.58348,0.69308 -1.36164,2.19822 -1.36164,2.63373 0,0.23553 -0.21559,0.62335 -0.47908,0.86181 -0.26349,0.23846 -0.47907,0.63465 -0.47907,0.88042 0,0.42697 -0.85637,2.37008 -2.88464,6.54526 -0.9887,2.03523 -2.51711,5.72869 -2.88866,6.98057 -0.12284,0.41389 -0.3832,0.88521 -0.57856,1.04735 -0.19537,0.16215 -0.35521,0.41462 -0.35521,0.56105 0,0.14645 -0.45255,1.21853 -1.00566,2.38244 -0.84334,1.7746 -0.94966,2.15436 -0.65873,2.35267 0.58767,0.40063 4.02886,0.0122 5.85631,-0.66088 z m -9.17473,-0.50665 c 0.47587,-0.55213 4.15091,-8.13428 4.35551,-8.98603 0.0875,-0.36414 0.70463,-1.80453 1.37147,-3.2009 0.66685,-1.39634 1.36279,-2.96493 1.54655,-3.48576 0.18377,-0.52082 0.53783,-1.23628 0.78681,-1.58988 0.24898,-0.35358 0.53572,-0.91238 0.63721,-1.24174 0.10148,-0.32937 0.58649,-1.46118 1.0778,-2.51515 0.49131,-1.05397 1.11469,-2.57889 1.38529,-3.3887 0.2706,-0.80981 0.79681,-1.92775 1.16935,-2.48432 0.89836,-1.34216 1.18766,-1.87486 1.53926,-2.83436 0.16176,-0.44144 0.54127,-1.16681 0.84334,-1.61197 0.30209,-0.44513 0.67205,-1.26967 0.82215,-1.8323 0.22843,-0.8562 3.73546,-8.25484 4.85632,-10.24516 0.85594,-1.51992 2.32441,-4.76513 2.45762,-5.43117 0.19846,-0.99231 0.0718,-1.06204 -3.61336,-1.98869 -0.65873,-0.16564 -1.79054,-0.55348 -2.51514,-0.86183 -0.72461,-0.30839 -1.69474,-0.62802 -2.15585,-0.71035 -1.19737,-0.21374 -4.24375,-1.2673 -5.50937,-1.90536 -0.59286,-0.29887 -2.10195,-0.87228 -3.35354,-1.27425 -1.25158,-0.40194 -3.03015,-1.07672 -3.95237,-1.49948 -0.92223,-0.42279 -2.7008,-1.07263 -3.95238,-1.44413 -3.39023,-1.0063 -5.75302,-1.79014 -6.82684,-2.26481 -0.52698,-0.23292 -2.46724,-0.82655 -4.31168,-1.31916 -4.4885,-1.19877 -8.30286,-2.32177 -8.74314,-2.57412 -0.19762,-0.11328 -1.11385,-0.3938 -2.03607,-0.6234 -4.08206,-1.01629 -4.5783,-1.15944 -5.0432,-1.45462 -0.27059,-0.1718 -1.39771,-0.59848 -2.50473,-0.94821 -1.10701,-0.3497 -2.12523,-0.72623 -2.26271,-0.83675 -0.13748,-0.11053 -0.89672,-0.38882 -1.68719,-0.61842 -0.79048,-0.22962 -1.76214,-0.57592 -2.15926,-0.76956 -0.39711,-0.19365 -0.98997,-0.3143 -1.31746,-0.26812 -0.5642,0.0795 -0.59099,0.15304 -0.51082,1.40139 0.0465,0.72461 0.16482,1.42526 0.26287,1.557 0.31112,0.41807 0.99131,2.76592 0.86195,2.97523 -0.0683,0.11053 0.14365,0.70468 0.471,1.32034 0.32735,0.61566 0.59518,1.25918 0.59518,1.43001 0,0.17087 0.57309,1.27004 1.27352,2.4426 0.70043,1.17258 1.52248,2.61702 1.82678,3.20988 0.30429,0.59286 1.02307,1.99415 1.59729,3.11399 0.57421,1.11985 1.47059,2.73673 1.99194,3.59308 1.26016,2.06987 3.61663,6.16805 4.06321,7.06637 0.19648,0.39524 0.68704,1.20368 1.09013,1.79653 0.40308,0.59286 0.84067,1.25274 0.97242,1.46643 0.13175,0.21367 0.70022,1.04693 1.26326,1.85166 0.56305,0.80472 1.09341,1.65393 1.17858,1.8871 0.0852,0.23317 0.35209,0.68103 0.59316,0.99523 0.24107,0.31418 0.4383,0.72652 0.4383,0.91626 0,0.42556 2.11051,4.11469 3.63433,6.35276 0.24496,0.35977 0.61392,1.31203 0.81992,2.11611 0.206,0.80408 0.74326,2.23134 1.19391,3.1717 0.45065,0.94035 0.81937,1.85191 0.81937,2.0257 0,0.34764 1.79564,3.7956 2.27508,4.36855 0.38894,0.4648 2.14345,3.38086 2.33587,3.88229 0.31628,0.82423 2.96626,4.66016 3.70852,5.36821 0.43063,0.41079 0.78298,0.89784 0.78298,1.08231 0,0.18447 0.40422,0.84044 0.89826,1.45768 0.49405,0.61725 1.09611,1.40231 1.33792,1.74456 0.38533,0.5454 2.42831,2.01796 2.81687,2.03037 0.0784,0.002 0.30511,-0.18408 0.50381,-0.41464 z m 110.0921,-46.57817 c 0.37641,-0.37641 0.35789,-1.6188 -0.0529,-3.54517 -0.26631,-1.24897 -3.53301,-8.44726 -4.89179,-10.77921 -0.11515,-0.19762 -0.55796,-1.05996 -0.98405,-1.9163 -1.17905,-2.36971 -3.48937,-6.8403 -4.64206,-8.98268 -2.53923,-4.71941 -3.951,-7.51434 -4.35579,-8.62337 -0.24043,-0.65873 -0.57078,-1.35937 -0.73409,-1.55699 -0.16332,-0.19762 -0.8873,-1.51352 -1.60884,-2.92421 -0.72153,-1.4107 -1.67746,-2.992 -2.12427,-3.514 -0.48868,-0.57092 -1.03731,-1.64875 -1.37685,-2.70494 -0.31044,-0.96571 -0.8734,-2.39474 -1.25101,-3.17563 -0.37762,-0.78088 -0.68723,-1.53543 -0.68804,-1.67676 -7.2e-4,-0.14134 -0.59366,-1.22476 -1.31746,-2.40761 -0.7238,-1.18284 -1.316,-2.26301 -1.316,-2.40038 0,-0.13737 -0.64491,-1.21763 -1.43314,-2.4006 -0.78823,-1.18296 -1.43498,-2.23686 -1.43723,-2.342 -0.002,-0.10513 -0.38136,-0.78093 -0.84247,-1.50176 -0.46111,-0.72083 -0.83838,-1.39225 -0.83838,-1.49205 0,-0.65317 -4.28259,-5.44062 -5.09854,-5.69959 -0.68705,-0.21806 -0.95868,0.20493 -1.52022,2.36732 -0.63072,2.42885 -1.31858,4.32138 -2.38897,6.57291 -0.45299,0.95283 -0.88999,2.08465 -0.97112,2.51515 -0.0811,0.43049 -0.29312,0.95148 -0.47109,1.15774 -0.17797,0.20627 -0.39419,0.74523 -0.48048,1.19769 -0.0863,0.45247 -0.57264,1.87581 -1.08077,3.16298 -0.50812,1.28717 -0.92386,2.45284 -0.92386,2.59038 0,0.13754 -0.27254,0.8459 -0.60564,1.57412 -0.33309,0.72823 -0.71981,1.82619 -0.85937,2.43992 -0.50212,2.20807 -0.98213,3.76088 -1.33341,4.31346 -0.19674,0.30947 -0.55165,1.11792 -0.7887,1.79654 -0.36298,1.03915 -1.10836,2.77479 -2.17581,5.06647 -0.12274,0.26349 -0.54836,1.54751 -0.94583,2.85338 -0.39747,1.30586 -0.81818,2.49158 -0.9349,2.63491 -0.11672,0.14334 -0.38321,0.84039 -0.5922,1.549 -0.209,0.70861 -0.48736,1.41775 -0.61859,1.57587 -0.13123,0.15814 -0.51774,1.0291 -0.8589,1.93549 -0.34117,0.90639 -0.69238,1.76022 -0.78047,1.89743 -0.0881,0.13718 -0.55101,1.27345 -1.0287,2.52504 -0.60569,1.58694 -0.79631,2.36704 -0.62989,2.57772 0.13125,0.16616 1.00592,0.52303 1.94372,0.79304 0.9378,0.26998 2.08236,0.661 2.54347,0.8689 0.46111,0.20791 1.48513,0.51359 2.27561,0.67933 3.72038,0.77998 9.34798,2.39983 10.05306,2.89369 0.26039,0.18238 0.82233,0.33161 1.24876,0.33161 0.42642,0 1.83068,0.37958 3.12058,0.84351 2.08406,0.74957 5.53996,1.76159 8.69302,2.54569 1.65394,0.41129 4.95152,1.38865 6.94661,2.05888 2.07669,0.69766 5.62512,1.63993 7.98523,2.12046 0.90061,0.18337 1.74482,0.39975 1.87601,0.48083 0.1312,0.0811 0.96421,0.29763 1.85115,0.48118 0.88694,0.18359 2.36027,0.59492 3.27405,0.91408 1.87834,0.65607 2.75242,0.74664 3.17053,0.32853 z m -69.2179,-2.72887 c 2.70418,-0.64608 4.002,-1.41502 5.17959,-3.06879 1.17721,-1.65325 3.30549,-5.08032 3.54699,-5.71152 0.0881,-0.23022 0.53925,-1.01124 1.00261,-1.73558 0.96072,-1.50185 1.28125,-2.21307 2.4298,-5.3913 0.88442,-2.44736 0.97596,-2.66496 2.41869,-5.74892 0.52389,-1.11983 1.36413,-3.32957 1.86721,-4.91052 0.50309,-1.58095 1.20675,-3.52121 1.56369,-4.31169 0.35695,-0.79047 0.78459,-1.86839 0.95032,-2.39538 0.16574,-0.52698 0.39611,-1.06055 0.51194,-1.18571 0.11583,-0.12516 0.2106,-0.41852 0.2106,-0.6519 0,-0.23339 0.28344,-1.04722 0.62987,-1.80851 0.6535,-1.4361 2.15413,-5.58441 4.18343,-11.56455 0.64825,-1.91031 1.38944,-3.95836 1.6471,-4.55122 0.80484,-1.85192 3.77241,-9.8574 4.32247,-11.66056 0.28854,-0.94584 0.46414,-1.81756 0.39023,-1.93715 -0.0739,-0.11958 -0.98315,-0.16829 -2.02054,-0.10824 -1.03739,0.0601 -2.46212,-0.0143 -3.16605,-0.16529 -1.12944,-0.24223 -1.46501,-0.21334 -2.8547,0.24574 -0.86615,0.28612 -1.77909,0.6231 -2.02875,0.74884 -0.83771,0.42187 -3.13366,1.12746 -3.68808,1.13341 -0.30193,0.003 -1.21816,0.31613 -2.03608,0.69531 -0.81792,0.37918 -2.13387,0.87487 -2.92435,1.10151 -1.38058,0.39585 -4.56368,1.57043 -6.82683,2.51914 -0.59286,0.24852 -1.83247,0.741 -2.75469,1.09439 -0.92222,0.35339 -2.26962,0.93936 -2.99423,1.30215 -0.7246,0.36279 -1.69469,0.74136 -2.15576,0.84128 -0.46106,0.0999 -1.2695,0.37214 -1.79653,0.60496 -3.06047,1.35196 -5.07898,2.15094 -5.42972,2.14923 -0.21963,-9.6e-4 -0.91341,0.21842 -1.54174,0.48775 -1.34121,0.57491 -5.49642,1.97773 -7.0416,2.37728 -0.59286,0.15331 -1.90983,0.59497 -2.92662,0.98149 -1.01678,0.38652 -2.03355,0.70276 -2.25949,0.70276 -0.22594,0 -1.49597,0.47602 -2.8223,1.05782 -1.32632,0.5818 -3.92059,1.61806 -5.76503,2.30279 -1.84444,0.68473 -3.7847,1.48853 -4.31168,1.78623 -0.52699,0.2977 -1.55101,0.72849 -2.27562,0.95731 -0.7246,0.22883 -1.64083,0.5655 -2.03607,0.74815 -0.39524,0.18265 -1.09589,0.40085 -1.557,0.4849 -0.46111,0.084 -1.05396,0.34495 -1.31746,0.57981 -0.26349,0.23485 -1.39531,0.74861 -2.51515,1.14168 -2.41696,0.84836 -5.4402,2.13195 -6.10163,2.59059 -0.25987,0.18019 -0.64905,0.32762 -0.86484,0.32762 -0.21579,0 -0.79797,0.27526 -1.29373,0.61169 -0.49576,0.33643 -1.61567,0.88503 -2.48869,1.21911 -0.87302,0.33409 -2.28797,0.91002 -3.14431,1.27985 -0.85635,0.36983 -2.52713,1.06876 -3.71284,1.55316 -3.51424,1.4357 -4.48126,1.8803 -5.86869,2.69817 -0.7246,0.42715 -1.8697,1.03999 -2.54466,1.36187 -1.56403,0.74586 -3.89895,2.22654 -4.53081,2.87321 -0.26849,0.27479 -0.99609,0.95995 -1.61688,1.52258 -0.62079,0.56263 -1.12871,1.17296 -1.12871,1.35628 0,0.21926 0.67614,0.49637 1.97619,0.8099 3.33725,0.80486 8.90341,2.6841 9.38934,3.17003 0.12546,0.12547 0.47944,0.22811 0.78661,0.22811 0.30717,0 1.19174,0.21334 1.9657,0.47405 0.77397,0.26074 2.62581,0.8054 4.11521,1.21038 1.4894,0.40497 2.81996,0.82876 2.9568,0.94175 0.13684,0.11299 0.94946,0.38508 1.80581,0.60464 0.85635,0.21956 2.04206,0.54164 2.63492,0.71576 0.59285,0.17412 1.77857,0.50576 2.63491,0.73699 0.85635,0.23123 1.77259,0.55034 2.03608,0.70913 0.26349,0.15879 1.88037,0.68129 3.59307,1.16109 1.7127,0.47979 3.70685,1.09845 4.43145,1.37476 0.72461,0.2763 2.1259,0.75397 3.114,1.06148 3.0173,0.93904 4.87578,1.57051 5.62914,1.91267 1.0728,0.48722 7.20898,2.51143 7.61316,2.51143 0.19276,0 0.82938,0.21185 1.41472,0.47077 2.2887,1.01241 7.16164,2.59297 7.62259,2.47241 0.29477,-0.0771 0.83801,0.11139 1.37963,0.4786 1.52991,1.0373 7.51658,2.3802 12.35192,2.77069 0.24187,0.0196 1.1581,-0.13611 2.03607,-0.34587 z"
       id="path3238"
       inkscape:connector-curvature="0"
       sodipodi:nodetypes="ssscssssssssssssssssssssssssssssssssssssscsscssssssssssssssssccssssssssssssssscsssscccccssssssssccssssssssssssccscssscsssssssssscsssccscsscssssssssssssssssssccssssssssssssssssssssssssssssssssssssssscssscsccsccsccsscssccssssssssssssssssssssssssssssscsssssssssssssssscsssscsssssssssscsssssssscssssssssssssssssssssssssssssssssssssssssssssssssssscssssscsssssssssscsssssssssssscsssscscssssscssscsssssssssssssssssssscssssssssssssssssssssssssssssssssssscssssssscssssssssssssssssssssssssssssssssssssssssscs" />
  </g>
</svg>
